<?xml version="1.0" encoding="UTF-8"?>
<svg xmlns="http://www.w3.org/2000/svg" id="logo-only-mark" viewBox="11 0 52 59.9" role="img" aria-label="さくらマーク">
<defs><style>.cls-1 { fill: #4a6086; } .cls-1, .cls-2 { stroke-width: 0px; } .cls-2 { fill: #f2a3b0; }</style></defs>
<g><path class="cls-2" d="M14.3,41.3c0-.2-.6-.3-1.6-.6-2.6,3.6-3.6,8.1-2.9,12.4,2,.8,4.1,1.2,6.2,1.2.6,2,1.7,3.9,3,5.6,1.1-.4,2.5-1.4,3.7-2.7-4-2.7-8.6-6.9-8.5-15.9Z"></path><path class="cls-2" d="M36.5,0c-2.1.5-4,1.5-5.7,2.7C29,1.5,27.1.5,25,0c-4.1,4-6,10.1-4.4,16,.2.8.5,1.5.8,2.2-.4-.3-.8-.6-1.2-.9-1.8-1.2-3.7-1.9-5.7-2.3-.4,0-.8-.1-1.2-.2-.7,0-1.3-.1-2-.1s-1.2,0-1.7,0c-.3,0-.7,0-1,.1-.3,0-.5.1-.8.2-.2,0-.4,0-.6.1-1.2.3-2.4.8-3.5,1.3-.1,2.1.2,4.3.8,6.3-.6.4-1.1.9-1.6,1.3-1,1-2,2.1-2.8,3.3.4.9,1,1.7,1.6,2.5,1.8,2.5,4.4,4.4,7.3,5.5,0,0,.1,0,.2,0,.3,0,.6.2.9.3.2,0,.3,0,.5.1,1.1.3,2.2.5,3.4.5.3,0,.5,0,.8,0h.6c-.3-.5-1.8-1.2-1.8-1.2-2.1-.8-3.3-3.4-3.2-4.7,0-1.4.8-1.4,1.9-1.6,1.1-.2,1-2,4.5-2l1.4-1.7c.1-.1.2-.2.4-.2s.2,0,.3.1h0c1.9,1.6,2.7,3.3,2.4,6.2-2.1,8.8,7.1,9.1,7.8,17.4,7-15.7-10.6-29.4,11.8-42.2-.8-2.5-2.2-4.8-4.1-6.7"></path><path class="cls-1" d="M58.7,24.1c-.5-.5-1-.9-1.6-1.3.7-2,1-4.2.8-6.3-1.1-.6-2.3-1-3.5-1.3-.2,0-.5-.1-.7-.2-.2,0-.5-.1-.7-.1-.3,0-.7-.1-1-.1-1.7-.2-3.3-.1-5,.2-2,.4-3.9,1.2-5.7,2.3-.4.3-.8.6-1.2.9.3-.7.5-1.4.8-2.2.7-2.5.7-5,.3-7.4-10.8,7-10.1,12.9-8.5,20.1,2.6-.9,5.8-2.9,7.6-6.1.3-.5,1-2.2,2-2.9.7-.6.9-.7,2-1.3,1.8-.8,2.8-.8,4.7-.2.9.3,2.2.4,3.2.1l1.8-.5c1-.3,1.9.4,1.9,1.4v.9c.1,1-.5,2.4-1.3,3.1l-3,2.3c-.8.7-1.6,1.9-2.1,2.7,0,0-1.2,1.9-2.3,3.7-1,1.6-1.5,3.1-1.6,4.5.7,0,1.5,0,2.2,0,1.4,0,2.7-.3,4-.7,3.2-1,6-3,8.1-5.6.7-.9,1.3-1.8,1.8-2.8h0c-.8-1.2-1.7-2.3-2.8-3.3h0Z"></path><path class="cls-1" d="M45.8,37.6c-.2-.1-.3-.2-.5-.4-.6,6.4-3.1,7.4-3.1,11.6l-.2,4.8c0,1.7.6,4.1,1.5,4.6,0,0,0,0,0,0,.8-1.2,1.4-2.5,1.8-3.9,2.1,0,4.2-.4,6.2-1.2,1-5.7-1.1-11.6-5.9-15.5h0Z"></path><path class="cls-1" d="M36.4,49.3c-.3-1.2-1.2-2.3-2.6-3.2-.4,2.2-1.2,4.6-2.3,7.2,2.1,2.8,5,4.9,8.2,6-.5-.7-1-1.6-1.4-2.5-.7-1.8-1.5-5.5-1.9-7.4h0Z"></path></g>
</svg>
