<?xml version="1.0" encoding="UTF-8"?><svg id="_レイヤー_2" xmlns="http://www.w3.org/2000/svg" viewBox="0 0 24 16"><g id="Payment-Methods"><g id="americanexpress-color"><rect y="0" width="24" height="16" rx="4" ry="4" fill="#fff"/><g id="amex"><path d="m4.44,8.95v4.08h4.13l.43-.61.42.61h2.525v-.92h.28c.254.002.507-.035.75-.11v1.03h1.715v-.73l.58.73h7.81c.321.006.637-.081.91-.25v1.72c-.229.886-1.03,1.504-1.945,1.5H2c-1.105,0-2-.895-2-2v-6.3h1.14l.235-.61h.56l.23.61h9.17v-.73l.58.73h2.405v-.37c.353.251.777.381,1.21.37h1.435l.23-.61h.56l.245.61h2.45v-.79l.5.79h1.69V3.62h-1.795v.83l-.535-.83h-1.57v1.05l-.5-1.05h-2.67c-.452-.013-.894.132-1.25.41v-.41H5.5l-.3.88-.3-.9h-2v1.05l-.47-1.05H.8l-.8,1.9v-3.5C0,.896.895,0,2,0h20.045c.919-.008,1.725.61,1.955,1.5v7.45h-14.57l-.43.6-.42-.6h-4.14Z" fill="#2a6eb6"/><path d="m7.355,10.18v-.6h-2.265v2.82h2.265v-.6h-1.585v-.5h1.555v-.61h-1.555v-.5l1.585-.01Zm2.045.82l1.13-1.4h-.83l-.7.87-.695-.89h-.85l1.145,1.42-1.1,1.4h.82l.68-.9.68.91h.86l-1.14-1.41Zm2.815-1.4h-1.555v2.8h.685v-.93h.85c.262.02.52-.072.711-.253s.296-.434.289-.697c.011-.26-.09-.511-.278-.691-.188-.18-.443-.27-.702-.249v.02Zm-.06,1.29h-.81v-.71h.81c.191,0,.345.154.345.345s-.154.345-.345.345v.02Zm3.145.5c.492-.058.843-.503.785-.995-.058-.492-.503-.843-.995-.785h-1.53v2.79h.68v-1h.31l.84,1h.855l-.945-1.01Zm-.27-.56h-.79v-.65h.79c.089-.012.178.016.246.075.067.059.105.145.104.235.002.09-.035.177-.103.237-.068.06-.158.087-.247.073v.03Zm3.65-.62v-.6h-2.275v2.79h2.275v-.6h-1.585v-.5h1.545v-.61h-1.545v-.5l1.585.02Zm1.885.5h-.655c-.101.02-.205-.022-.262-.108-.057-.086-.057-.198,0-.284.057-.086.161-.129.262-.108h1.215l.27-.6h-1.465c-.249-.029-.499.051-.685.22-.186.169-.29.409-.285.66-.015.233.075.462.245.622s.403.237.635.208h.66c.101-.02.205.022.262.108.057.086.057.198,0,.284-.057.086-.161.129-.262.108h-1.46v.6h1.46c.252.021.501-.069.682-.245s.277-.422.263-.675c.013-.231-.079-.456-.249-.613-.17-.157-.402-.229-.631-.197v.02Zm1.95-.5h1.215l.27-.61h-1.465c-.249-.029-.499.051-.685.22-.186.169-.29.409-.285.66-.015.233.075.462.245.622s.403.237.635.208h.645c.101-.02.205.022.262.108.057.086.057.198,0,.284-.057.086-.161.129-.262.108h-1.445v.6h1.435c.403.04.782-.199.92-.58v-.67c-.144-.316-.474-.506-.82-.47h-.68c-.101.02-.205-.022-.262-.108-.057-.086-.057-.198,0-.284.057-.086.161-.129.262-.108l.015.02Z" fill="#2a6eb6"/><path d="m2.115,4.25h-.89l-1.225,2.82h.74l.26-.57h1.315l.24.59h.77l-1.21-2.84Zm-.925,1.68l.275-.66.18-.44.18.44.27.66h-.905Zm4.66-1.68l-.55,1.63-.09.31h0l-.09-.31-.56-1.63h-1.105v2.82h.665v-2.28h0l.14.43.64,1.85h.6l.655-1.85.13-.43h0v2.28h.66v-2.82h-1.095Zm3.9.6v-.6h-2.25v2.82h2.25v-.6h-1.585v-.5h1.545v-.61h-1.545v-.5l1.585-.01Zm2.205,1.18c.448-.054.781-.439.77-.89.004-.257-.105-.503-.297-.674s-.449-.25-.703-.216h-1.525v2.82h.695v-1h.31l.84,1h.85l-.94-1.04Zm-.27-.56h-.79v-.62h.79c.089-.01.177.018.244.077.067.059.105.144.106.233.002.09-.035.177-.103.237-.068.06-.158.087-.247.073h0Zm1.37-1.22v2.82h.685v-2.82h-.685Zm2.5.61h.735v-.61h-.79c-.372-.024-.735.117-.995.384-.26.267-.389.635-.355,1.006v.04c-.042.366.08.731.332.999.252.268.61.411.978.391h.04l.275-.6h-.225c-.208.011-.409-.071-.55-.224-.141-.153-.207-.36-.18-.566v-.04c-.024-.204.044-.409.184-.559.141-.15.34-.231.546-.221h.005Zm2.39-.61h-.9l-1.21,2.82h.73l.24-.57h1.335l.24.59h.77l-1.205-2.84Zm-.92,1.68l.26-.66.18-.44h0l.17.44.27.66h-.88Zm4.28-1.68v1.84h0l-.19-.32-1-1.5h-.835v2.82h.67v-1.92h0l.18.31,1.045,1.59h.825v-2.82h-.695Z" fill="#2a6eb6"/></g></g></g></svg>