<?xml version="1.0" encoding="UTF-8"?><svg id="_レイヤー_2" xmlns="http://www.w3.org/2000/svg" viewBox="0 0 24 16"><g id="Payment-Methods"><g id="discover-color"><rect width="24" height="16" rx="2" ry="2" fill="#fff"/><path id="card_bg-2" d="m22,1c.552,0,1,.448,1,1v12c0,.552-.448,1-1,1H2c-.552,0-1-.448-1-1V2c0-.552.448-1,1-1h20Zm0-1H2C.895,0,0,.895,0,2v12c0,1.105.895,2,2,2h20c1.105,0,2-.895,2-2V2c0-1.105-.895-2-2-2Z" fill="#221d1e"/><g id="discover"><path d="m23,8.86v5.14c0,.552-.448,1-1,1H6c11-1.89,17-6.14,17-6.14Z" fill="#ee7724"/><path d="m2.91,5.32h-.91v3.2h.91c.414.024.823-.104,1.15-.36.535-.449.721-1.191.458-1.838-.262-.647-.912-1.052-1.608-1.002Zm.74,2.4c-.236.207-.547.308-.86.28h-.16v-2.14h.16c.31-.031.619.062.86.26.222.206.346.497.34.8.005.303-.119.593-.34.8h0Z" fill="#221d1e"/><rect x="4.93" y="5.32" width="1" height="3.21" fill="#221d1e"/><path d="m7.08,6.55c-.37-.14-.48-.23-.48-.41s.19-.35.46-.35c.202,0,.391.097.51.26l.33-.43c-.272-.248-.632-.377-1-.36-.522-.002-.958.399-1,.92,0,.44.2.67.79.88.25.09.37.15.44.18.113.076.18.204.18.34-.015.229-.2.41-.43.42-.294.005-.564-.164-.69-.43l-.4.43c.235.386.659.615,1.11.6.291.03.58-.07.792-.271.212-.202.324-.486.308-.779,0-.55-.2-.74-.92-1Z" fill="#221d1e"/><path d="m8.21,6.92c-.005.449.171.881.49,1.198s.752.491,1.2.482c.271-.002.538-.067.78-.19v-.74c-.191.212-.464.332-.75.33-.297.025-.59-.083-.799-.296-.209-.213-.312-.508-.281-.804-.005-.283.103-.556.3-.759.197-.203.467-.318.75-.321.301-.003.587.129.78.36v-.74c-.235-.131-.5-.2-.77-.2-.448-.003-.879.173-1.198.488-.319.315-.499.744-.502,1.192h0Z" fill="#221d1e"/><polygon points="15.65 7.47 14.79 5.32 14.11 5.32 15.47 8.61 15.81 8.61 17.19 5.32 16.52 5.32 15.65 7.47" fill="#221d1e"/><polygon points="17.48 8.53 19.25 8.53 19.25 7.98 18.1 7.98 18.1 7.12 19.21 7.12 19.21 6.57 18.1 6.57 18.1 5.86 19.25 5.86 19.25 5.32 17.48 5.32 17.48 8.53" fill="#221d1e"/><path d="m21,7.18c.445-.071.762-.471.73-.92,0-.6-.41-.94-1.14-.94h-.92v3.2h.63v-1.29h.07l.87,1.29h.76l-1-1.34Zm-.52-.39h-.18v-1h.19c.38,0,.59.16.59.48s-.21.52-.6.52Z" fill="#221d1e"/><path d="m14.3,6.92c.004.693-.41,1.319-1.049,1.587s-1.376.124-1.867-.364c-.491-.488-.639-1.225-.375-1.865.264-.64.888-1.058,1.581-1.058.938.005,1.699.762,1.71,1.7h0Z" fill="#ee7724"/><path d="m22,5.45c.035-.005.06-.035.06-.07,0-.06,0-.09-.11-.09h-.1v.29h.07v-.12l.09.12h.08l-.09-.13Zm-.06,0h0v-.1h.05l.01.06-.06.04Z" fill="#221d1e"/><path d="m22,5.18c-.134.005-.24.116-.24.25,0,.133.107.24.24.24s.24-.107.24-.24c0-.134-.106-.245-.24-.25h0Zm.13.4c-.031.039-.08.062-.13.06-.053-.003-.103-.026-.139-.066-.036-.039-.054-.091-.051-.144,0-.068.036-.131.095-.165.059-.034.131-.034.19,0,.059.034.095.097.095.165-.009.06-.041.114-.09.15h.03Z" fill="#221d1e"/></g></g></g></svg>