<?xml version="1.0" encoding="UTF-8"?><svg id="_レイヤー_2" xmlns="http://www.w3.org/2000/svg" viewBox="0 0 24 16"><g id="Payment-Methods"><g id="dinnerclub-color"><rect width="24" height="16" rx="2" ry="2" fill="#fff"/><path d="m22,1c.552,0,1,.448,1,1v12c0,.552-.448,1-1,1H2c-.552,0-1-.448-1-1V2c0-.552.448-1,1-1h20m0-1H2C.895,0,0,.895,0,2v12c0,1.105.895,2,2,2h20c1.105,0,2-.895,2-2V2c0-1.105-.895-2-2-2Z" fill="#0b79be"/><g id="dinner_club"><path d="m5.22,11.52c1.15,0,1.34-.81,1.34-1.13-.009-.328-.155-.637-.402-.853s-.572-.32-.898-.287h-1v.08c.15,0,.3,0,.3.28v1.58c0,.22-.1.23-.3.24v.09h.96Zm-.29-2.16h.26c.274,0,.536.112.725.31.189.198.288.466.275.74.026.26-.061.519-.239.71-.178.191-.43.297-.691.29-.16,0-.34,0-.34-.28l.01-1.77Z" fill="#201c1d"/><path d="m7,9.53c.084-.005.15-.075.15-.16,0-.085-.066-.155-.15-.16-.088,0-.16.072-.16.16s.072.16.16.16h0Z" fill="#201c1d"/><path d="m6.74,11.43h-.06v.09h.69v-.09h0c-.09,0-.16,0-.16-.1v-1.3c-.02-.006-.04-.006-.06,0l-.34.11v.06c.12.06.17.08.17.22v.89c-.08.12-.15.12-.24.12Z" fill="#201c1d"/><path d="m9.1,11.43h-.1c-.09,0-.16,0-.16-.1v-.84c0-.26-.1-.46-.37-.46-.212.021-.411.108-.57.25v-.22h0s-.29.11-.43.16v.06c.16.06.19.09.19.21v.87c0,.1-.06.1-.15.1h-.04v.09h.69v-.09h-.05c-.09,0-.17,0-.17-.1v-1c.114-.078.244-.129.38-.15.19,0,.3.09.3.27v.85c0,.1-.06.1-.16.1h-.05v.09h.69v-.09Z" fill="#201c1d"/><path d="m9.71,11.57c.249-.016.474-.155.6-.37h0c-.108.134-.268.214-.44.22-.282-.031-.492-.276-.48-.56-.011-.063-.011-.127,0-.19h.91c.005-.02.005-.04,0-.06.024-.157-.024-.317-.13-.436-.107-.118-.261-.182-.42-.174-.23,0-.66.19-.66.83-.026.182.027.367.145.508s.291.225.475.232h0Zm0-1.43c.079-.006.156.023.212.078s.084.133.078.212c0,0,0,.09-.09.09h-.55c.04-.24.18-.38.37-.38h-.02Z" fill="#201c1d"/><path d="m11.22,11.52v-.09h-.22c-.09,0-.15,0-.15-.1v-.77c.003-.133.099-.246.23-.27.12,0,.12.08.22.08.042-.003.082-.022.11-.054s.042-.074.04-.116c.012-.096-.054-.185-.15-.2-.2,0-.34.21-.42.34h0v-.3h0s-.16.09-.39.19h0c.05,0,.17,0,.17.14v.92c0,.1-.07.1-.16.1h-.09v.09h.85l-.04.04Z" fill="#201c1d"/><path d="m12,11.46c-.217-.005-.395-.174-.41-.39h-.06v.38c.124.064.26.102.4.11.39,0,.56-.23.56-.44,0-.52-.76-.4-.76-.78,0-.14.13-.21.26-.21.09-.008.179.021.246.082s.104.147.104.238h.08v-.33c-.117-.063-.247-.098-.38-.1-.123-.014-.246.023-.34.103-.095.079-.152.194-.16.317,0,.52.71.4.71.78.05.13-.02.24-.25.24Z" fill="#201c1d"/><path d="m15.43,11.4l.07-.48h-.07c-.05.325-.331.564-.66.56-.283-.015-.548-.144-.736-.356-.188-.212-.283-.491-.264-.774-.019-.257.069-.51.243-.7.174-.19.42-.298.677-.3.165-.023.332.022.463.123.132.102.217.252.237.417h.08v-.47c-.245-.1-.506-.158-.77-.17-.654-.023-1.203.487-1.23,1.14-.021.334.103.661.341.896.238.236.565.357.899.334.252-.027.496-.102.72-.22Z" fill="#201c1d"/><path d="m16.31,11.52v-.09h0c-.09,0-.16,0-.16-.1v-2.3h-.07c-.109.057-.223.104-.34.14h0c.13,0,.18,0,.18.25v1.82c0,.1-.07.1-.16.1h-.06v.09h.69l-.08.09Z" fill="#201c1d"/><path d="m16.51,10.35v.83c-.012.101.021.203.091.278.069.075.168.116.269.112.219-.017.423-.117.57-.28v.27h0c.154-.046.311-.08.47-.1v-.06h-.11c-.06,0-.09,0-.09-.06v-1.26l-.51.05h0c.12,0,.28.07.28.14v.87c-.109.107-.249.177-.4.2-.28,0-.28-.28-.28-.38v-.93h-.42v.06c.12.09.13.17.13.26Z" fill="#201c1d"/><path d="m18.1,9.51v1.4c-.001.194-.018.388-.05.58h.07l.1-.08c.136.08.292.122.45.12.451-.027.797-.409.78-.86.011-.171-.048-.34-.162-.468-.115-.128-.276-.204-.448-.212-.184.019-.355.104-.48.24h0v-1.2h-.07c-.109.057-.223.104-.34.14h0c.1.13.15.13.15.34Zm.26.85c.079-.084.185-.138.3-.15.315.046.544.322.53.64,0,.29-.15.63-.5.63-.18-.005-.325-.15-.33-.33v-.79Z" fill="#201c1d"/><path d="m4.57,12.23h-.27v.06h0c.07,0,.13,0,.13.09v.93c0,.09-.06.09-.13.09h0v.06h.56v-.06h0c-.07,0-.13,0-.13-.09v-.93c0-.08.06-.09.13-.09h0v-.06h-.29Z" fill="#201c1d"/><path d="m6.13,12.23h-.26v.06h0s.14,0,.14.16v.65l-.78-.88h-.32v.06h0c.083,0,.15.067.15.15v.75c0,.14,0,.21-.15.21h0v.07h.48v-.06h0c-.14,0-.16,0-.16-.19v-.71l.9,1h.08c-.005-.06-.005-.12,0-.18v-.8c0-.21.07-.22.15-.22h0v-.06h-.23v-.01Z" fill="#201c1d"/><path d="m7.57,12.17h0q0,.05-.08.05h-1.02c.005.05.005.1,0,.15.005.05.005.1,0,.15h.07c0-.13,0-.15.16-.15h.28v.93q0,.14-.14.14h0v.07h.6v-.06h0c-.08,0-.13,0-.14-.14v-.93h.29c.11,0,.12.09.12.16h.06v-.29h-.2v-.08Z" fill="#201c1d"/><path d="m8.63,13.16h0c-.05.2-.14.21-.35.21s-.21,0-.21-.11v-.4h.21c.11,0,.11.06.13.17h.06v-.4h-.06c0,.1,0,.15-.14.15h-.2v-.45h.24c.18,0,.2.09.21.2h.07c-.005-.06-.005-.12,0-.18v-.09h-.92v.06h0c.06,0,.12,0,.12.09v.93c0,.09-.06.09-.12.09h0v.06h1c.009-.095.03-.189.06-.28h-.06l-.04-.05Z" fill="#201c1d"/><path d="m9.81,13.3l-.29-.44c.137-.048.232-.175.24-.32,0-.26-.21-.32-.43-.32h-.57v.06h0c.06,0,.12,0,.12.13v.9c0,.06-.05.08-.12.08h0v.07h.58v-.06h0c-.08,0-.14,0-.14-.13v-.37h.11c.108.197.228.388.36.57h.33v-.06h0c-.081.011-.159-.034-.19-.11h0Zm-.3-.75c0,.21-.09.27-.27.27h-.08v-.51h.09c.067-.006.133.017.183.063s.077.11.077.177Z" fill="#201c1d"/><path d="m11.47,12.29v-.06h-.47v.06h0c.043-.004.084.013.114.044s.043.074.036.116v.65l-.78-.88h-.37v.06h0c.083,0,.15.067.15.15v.75c0,.14,0,.21-.15.21h0v.07h.49v-.06h0c-.13,0-.16,0-.16-.19v-.71l.9,1h.08c-.005-.06-.005-.12,0-.18v-.8c0-.21.08-.22.15-.22h0l.01-.01Z" fill="#201c1d"/><path d="m12.57,13.34c-.029-.058-.053-.118-.07-.18l-.32-.93h0l-.16.08c-.013.076-.036.15-.07.22l-.28.81c-.018.067-.081.113-.15.11h0v.07h.42v-.06h0c-.06,0-.13,0-.13-.05-.004-.047-.004-.093,0-.14l.06-.17h.39l.06.2c.004.04.004.08,0,.12h-.1v.07h.53v-.06h0c-.13-.03-.16-.04-.18-.09Zm-.42-.42h-.31l.16-.47.15.47Z" fill="#201c1d"/><path d="m13.73,12.17h0q0,.05-.09.05h-1.07c.005.05.005.1,0,.15.005.05.005.1,0,.15h.07c0-.13,0-.15.16-.15h.28v.93q0,.14-.14.14h0v.07h.6v-.06h0c-.08,0-.14,0-.14-.14v-.93h.28c.12,0,.12.09.13.16h.06v-.14c-.005-.05-.005-.1,0-.15h-.06l-.08-.08Z" fill="#201c1d"/><path d="m14.11,12.23h-.27v.06h0c.06,0,.12,0,.12.09v.93c0,.09-.06.09-.12.09h0v.06h.55v-.06h0c-.06,0-.12,0-.12-.09v-.93c0-.08.06-.09.12-.09h0v-.06h-.28Z" fill="#201c1d"/><path d="m15.09,12.19c-.177,0-.346.071-.47.197-.124.126-.192.296-.19.473h0c-.003.176.067.345.195.467.127.122.3.184.475.173.184.006.362-.065.491-.196.129-.131.198-.31.189-.494-.005-.175-.082-.341-.212-.458-.13-.117-.303-.176-.478-.162Zm0,.1c.29,0,.43.31.43.56s-.06.56-.4.56-.42-.3-.42-.62.09-.5.39-.5Z" fill="#201c1d"/><path d="m17.25,12.29v-.06h-.48v.06h0c.06,0,.15,0,.15.16v.65l-.78-.88h-.37v.06h0c.083,0,.15.067.15.15v.75c0,.14,0,.21-.15.21h0v.07h.48v-.06h0c-.13,0-.15,0-.15-.19v-.71l.89,1h.09c-.005-.06-.005-.12,0-.18v-.8c0-.21.07-.22.14-.22h0l.03-.01Z" fill="#201c1d"/><path d="m18.35,13.34c0-.05,0-.12-.07-.18l-.28-.93h0l-.16.08-.07.22-.29.81c-.015.069-.079.117-.15.11h0v.07h.42v-.06h0c-.06,0-.12,0-.12-.05v-.14l.06-.17h.31l.07.2c.006.04.006.08,0,.12h-.1v.07h.53v-.06h0c-.1-.03-.13-.04-.15-.09Zm-.41-.42h-.31l.15-.47.16.47Z" fill="#201c1d"/><path d="m19.48,13.16h0c.008.043.008.087,0,.13-.04.049-.097.081-.16.09h-.32c-.026.003-.051-.005-.07-.023-.019-.017-.03-.042-.03-.067v-.91q0-.09.12-.09h.05v-.06h-.57v.06h0c.06,0,.12,0,.12.09v.91c0,.11-.06.11-.12.11h0v.07h1l.06-.3h-.06l-.02-.01Z" fill="#201c1d"/><path d="m19.51,12.18c-.05,0-.097.02-.131.056s-.052.084-.049.134c0,.099.081.18.18.18.049.003.098-.015.134-.049.036-.034.056-.081.056-.131.003-.051-.016-.101-.052-.138-.036-.036-.086-.055-.138-.052h0Zm0,.34c-.083,0-.15-.067-.15-.15,0-.085.066-.155.15-.16.084.005.15.075.15.16,0,.083-.067.15-.15.15Z" fill="#201c1d"/><path d="m19.53,12.37h0s0-.05-.06-.05h-.1v.14h.09v-.06h0s.05.08.07.08h0l-.05-.05.05-.06Z" fill="#201c1d"/><g id="mark"><path d="m12.68,8.79c1.768.029,3.239-1.353,3.32-3.12-.013-.863-.372-1.684-.996-2.28-.624-.596-1.461-.916-2.324-.89h-1.48c-.852-.028-1.677.296-2.283.896-.605.6-.937,1.422-.917,2.274.008.839.35,1.64.951,2.226.601.586,1.41.908,2.249.894h1.48Z" fill="#0b79be"/><path d="m11.21,2.76c-1.591,0-2.88,1.289-2.88,2.88s1.289,2.88,2.88,2.88,2.88-1.289,2.88-2.88-1.289-2.88-2.88-2.88h0Zm-1.83,2.88h0c.002-.757.471-1.434,1.18-1.7v3.4c-.709-.266-1.178-.943-1.18-1.7h0Zm2.48,1.71h0v-3.41c.695.277,1.148.952,1.14,1.7.006.75-.446,1.427-1.14,1.71h0Z" fill="#fff"/><path d="m12.68,8.79c1.768.029,3.239-1.353,3.32-3.12-.013-.863-.372-1.684-.996-2.28-.624-.596-1.461-.916-2.324-.89h-1.48c-.852-.028-1.677.296-2.283.896-.605.6-.937,1.422-.917,2.274.008.839.35,1.64.951,2.226.601.586,1.41.908,2.249.894h1.48Z" fill="#0b79be"/><path d="m11.21,2.76c-1.591,0-2.88,1.289-2.88,2.88s1.289,2.88,2.88,2.88,2.88-1.289,2.88-2.88-1.289-2.88-2.88-2.88h0Zm-1.83,2.88h0c.002-.757.471-1.434,1.18-1.7v3.4c-.709-.266-1.178-.943-1.18-1.7h0Zm2.48,1.71h0v-3.41c.695.277,1.148.952,1.14,1.7.006.75-.446,1.427-1.14,1.71h0Z" fill="#fff"/></g></g></g></g></svg>