<?xml version="1.0" encoding="UTF-8"?><svg id="_レイヤー_2" xmlns="http://www.w3.org/2000/svg" viewBox="0 0 24 16"><g id="Payment-Methods"><g id="jcb-color"><rect width="24" height="16" rx="2" ry="2" fill="#fff"/><g id="jcb-logo"><path d="m16.05,9.29h1.3c.24-.049.41-.265.4-.51.003-.245-.163-.46-.4-.52h-1.3v1.03Z" fill="#41a648"/><path d="m17.07,2c-1.105,0-2,.895-2,2v2.08h3c.64,0,1.11.36,1.11.93-.011.498-.412.899-.91.91v.08c.65,0,1.14.4,1.14,1s-.55,1-1.27,1h-3.1v4h2.96c1.105,0,2-.895,2-2V2h-2.93Z" fill="#41a648"/><path d="m17.61,7.15c.002-.238-.174-.44-.41-.47h-1.15v1h1.15c.237-.035.413-.24.41-.48v-.05Z" fill="#41a648"/><path d="m6,2c-1.105,0-2,.895-2,2v4.93c.531.281,1.12.436,1.72.45.277.019.55-.077.753-.267s.318-.455.317-.733v-2.31h1.73v2.31c0,.91-.52,1.62-2.46,1.62-.674-.004-1.346-.088-2-.25v4.25h2.88c.53,0,1.039-.211,1.414-.586.375-.375.586-.884.586-1.414V2h-2.94Z" fill="#0d68b0"/><path d="m11.54,2c-1.105,0-2,.895-2,2v2.62c.827-.548,1.829-.769,2.81-.62.529.033,1.055.113,1.57.24v.85c-.469-.253-.988-.403-1.52-.44-1.08-.08-1.72.45-1.72,1.37s.64,1.46,1.72,1.37c.531-.041,1.049-.191,1.52-.44v.85c-.515.129-1.04.209-1.57.24-.984.143-1.985-.085-2.81-.64v4.6h2.94c1.105,0,2-.895,2-2V2h-2.94Z" fill="#be2234"/></g></g></g></svg>