<?xml version="1.0" encoding="UTF-8"?><svg id="_レイヤー_2" xmlns="http://www.w3.org/2000/svg" viewBox="0 0 24 16"><g id="Payment-Methods"><g id="mastercard-color"><rect width="24" height="16" rx="2" ry="2" fill="#f3f1ec"/><g id="mastercard"><g id="Group" opacity="0"><rect id="Rectangle" x="2.32" y="1.6" width="19.35" height="12.8" fill="#fff"/></g><rect x="9.45" y="3.83" width="5.11" height="8.34" fill="#f26223"/><path id="Path" d="m10,8c-.005-1.623.731-3.159,2-4.17-2.174-1.705-5.292-1.455-7.166.575-1.874,2.03-1.874,5.159,0,7.189,1.874,2.03,4.992,2.281,7.166.575-1.271-1.01-2.008-2.547-2-4.17Z" fill="#e92227"/><path id="Shape" d="m20.07,11.29v-.17h.08-.15v.17h.07Zm.34,0v-.21h-.05l-.06.15-.06-.15h-.06v.21h0v-.16l.06.13h0l.06-.13v.16h.11Z" fill="#f59e20"/><path d="m20.58,8c-.005,2.028-1.165,3.876-2.989,4.762-1.824.886-3.993.657-5.591-.592,1.277-1.007,2.023-2.544,2.023-4.17s-.745-3.163-2.023-4.17c1.596-1.257,3.77-1.492,5.597-.604,1.827.888,2.986,2.742,2.983,4.774Z" fill="#f59e20"/></g></g></g></svg>