<?xml version="1.0" encoding="UTF-8"?><svg id="_レイヤー_2" xmlns="http://www.w3.org/2000/svg" viewBox="0 0 51.157 32"><defs><style>.cls-1{fill:#007b84;}.cls-2{fill:#00447c;}.cls-3{fill:#e21836;}.cls-4{fill:#fefefe;}</style></defs><g id="Payment-Methods"><path class="cls-3" d="m10.018,0h12.769c1.782,0,2.891,1.453,2.475,3.241l-5.945,25.523c-.42,1.782-2.204,3.236-3.988,3.236H2.562c-1.78,0-2.891-1.454-2.475-3.236L6.034,3.241c.416-1.788,2.199-3.241,3.984-3.241"/><path class="cls-2" d="m21.724,0h14.684c1.782,0,.978,1.453.559,3.241l-5.944,25.523c-.417,1.782-.287,3.236-2.073,3.236h-14.684c-1.786,0-2.891-1.454-2.471-3.236L17.739,3.241c.422-1.788,2.202-3.241,3.985-3.241"/><path class="cls-1" d="m35.826,0h12.769c1.785,0,2.893,1.453,2.474,3.241l-5.944,25.523c-.42,1.782-2.205,3.236-3.99,3.236h-12.763c-1.786,0-2.893-1.454-2.475-3.236L31.842,3.241c.416-1.788,2.198-3.241,3.984-3.241"/><path class="cls-4" d="m13.353,8.179c-1.313.013-1.701,0-1.825-.029-.048.226-.934,4.314-.936,4.317-.191.827-.33,1.416-.801,1.797-.268.221-.58.328-.942.328-.582,0-.922-.289-.978-.838l-.011-.188s.177-1.108.177-1.114c0,0,.93-3.725,1.096-4.217.009-.028.011-.043.013-.056-1.81.016-2.131,0-2.153-.029-.012.04-.057.271-.057.271l-.95,4.198-.082.356-.158,1.165c0,.345.068.627.203.866.433.756,1.667.869,2.365.869.899,0,1.743-.191,2.313-.54.99-.585,1.249-1.499,1.48-2.311l.107-.417s.958-3.869,1.121-4.372c.006-.028.009-.043.017-.056Zm3.259,3.121c-.231,0-.653.056-1.032.242-.138.071-.268.152-.405.233l.124-.447-.068-.075c-.804.163-.984.185-1.726.289l-.062.041c-.086.715-.163,1.252-.482,2.658-.122.518-.248,1.041-.375,1.557l.034.066c.761-.04.992-.04,1.653-.029l.054-.058c.084-.43.095-.531.281-1.403.087-.413.27-1.321.36-1.645.165-.077.328-.152.484-.152.371,0,.326.323.311.452-.016.216-.151.923-.289,1.529l-.092.392c-.064.289-.135.57-.199.857l.028.057c.75-.04.979-.04,1.619-.029l.075-.058c.116-.672.15-.852.355-1.831l.103-.45c.201-.88.302-1.326.15-1.69-.161-.407-.546-.506-.9-.506Zm3.641.922c-.399.077-.653.128-.906.161-.251.04-.495.077-.88.13l-.031.028-.028.022c-.04.287-.068.535-.121.827-.045.302-.115.644-.228,1.137-.087.377-.133.508-.182.641-.049.133-.102.261-.2.632l.023.034.019.031c.36-.017.596-.029.838-.031.242-.009.492,0,.88.002l.034-.028.036-.031c.056-.334.064-.424.099-.587.034-.175.092-.417.236-1.064.068-.304.143-.607.214-.917.073-.309.15-.613.223-.917l-.011-.037-.015-.034Zm.008-1.242c-.362-.214-.998-.146-1.426.149-.427.289-.475.7-.114.917.356.208.994.146,1.419-.152.426-.296.479-.703.122-.914Zm2.191,4.952c.733,0,1.484-.202,2.05-.801.435-.486.635-1.209.704-1.507.225-.987.05-1.448-.17-1.729-.334-.428-.925-.565-1.538-.565-.368,0-1.246.036-1.932.669-.492.456-.72,1.075-.857,1.668-.138.604-.298,1.692.703,2.097.309.133.754.169,1.041.169Zm-.057-2.221c.169-.748.368-1.375.878-1.375.399,0,.428.467.251,1.217-.032.167-.177.786-.374,1.049-.138.195-.3.312-.48.312-.054,0-.372,0-.377-.473-.002-.233.045-.472.103-.731Zm4.643,2.125l.057-.058c.081-.43.095-.532.275-1.403.09-.413.276-1.321.364-1.645.166-.077.326-.152.486-.152.368,0,.323.323.309.452-.013.217-.148.923-.289,1.529l-.087.392c-.067.289-.14.57-.204.857l.028.057c.753-.04.973-.04,1.617-.029l.078-.058c.113-.673.143-.852.355-1.831l.101-.45c.202-.88.304-1.326.154-1.69-.165-.407-.553-.506-.902-.506-.231,0-.655.056-1.032.242-.135.071-.27.152-.402.233l.115-.447-.062-.076c-.804.163-.987.185-1.729.289l-.057.041c-.09.715-.163,1.252-.483,2.658-.122.518-.248,1.041-.374,1.557l.034.066c.762-.04.99-.04,1.65-.029Zm5.529.029c.047-.231.328-1.6.331-1.6,0,0,.239-1.004.254-1.041,0,0,.075-.105.151-.146h.111c1.045,0,2.226,0,3.151-.681.63-.467,1.06-1.156,1.252-1.994.05-.205.087-.45.087-.694,0-.321-.064-.638-.251-.886-.472-.66-1.411-.672-2.496-.677-.003,0-.535.005-.535.005-1.388.017-1.945.012-2.174-.016-.019.101-.056.281-.056.281,0,0-.497,2.305-.497,2.309,0,0-1.19,4.901-1.246,5.131,1.212-.015,1.709-.015,1.918.008Zm.922-4.094s.529-2.3.526-2.292l.017-.118.007-.09.211.022s1.091.094,1.116.096c.43.167.608.596.484,1.156-.113.512-.445.942-.872,1.15-.351.176-.782.191-1.225.191h-.287l.022-.115Zm3.292,1.983c-.14.596-.3,1.684.695,2.072.317.135.602.175.891.161.305-.016.588-.17.85-.39-.024.091-.047.181-.071.272l.045.058c.716-.03.938-.03,1.714-.024l.07-.054c.113-.666.22-1.313.514-2.587.143-.61.287-1.215.434-1.823l-.023-.067c-.801.148-1.015.18-1.786.289l-.059.048c-.008.062-.016.121-.023.181-.12-.194-.293-.359-.561-.462-.343-.135-1.147.039-1.839.669-.486.45-.72,1.066-.852,1.657Zm1.682.036c.171-.734.368-1.355.879-1.355.323,0,.493.298.458.806-.027.127-.057.26-.092.411-.051.218-.106.434-.16.651-.055.148-.119.288-.189.381-.131.186-.444.302-.624.302-.051,0-.366,0-.377-.464-.002-.231.045-.469.105-.731Zm8.786-2.424l-.062-.071c-.793.161-.936.186-1.664.284l-.054.054c-.002.009-.005.022-.008.034l-.002-.012c-.542,1.251-.526.981-.968,1.966-.002-.045-.002-.073-.005-.12l-.11-2.135-.069-.071c-.83.161-.85.186-1.617.284l-.06.054c-.008.026-.008.054-.013.084l.005.011c.096.49.073.381.169,1.154.045.379.105.761.149,1.136.076.627.118.936.21,1.893-.518.855-.64,1.178-1.139,1.928l.003.007-.351.555c-.04.059-.077.099-.128.116-.056.028-.129.033-.23.033h-.195l-.289.962.992.017c.582-.002.948-.275,1.145-.641l.624-1.069h-.01l.066-.075c.42-.903,3.611-6.378,3.611-6.378Zm-10.469,12.63h-.421l1.557-5.151h.517l.164-.531.016.59c-.019.365.268.688,1.021.635h.872l.3-.992h-.328c-.189,0-.276-.048-.265-.15l-.016-.6h-1.614v.003c-.522.011-2.081.05-2.396.134-.382.098-.784.388-.784.388l.158-.531h-1.51l-.315,1.054-1.578,5.23h-.306l-.3.985h3.008l-.101.328h1.482l.098-.328h.416l.326-1.063Zm-1.234-4.104c-.242.067-.692.27-.692.27l.4-1.316h1.2l-.289.959s-.371.022-.619.087Zm.023,1.881s-.377.047-.625.103c-.244.074-.702.307-.702.307l.413-1.37h1.206l-.292.959Zm-.672,2.236h-1.204l.349-1.156h1.2l-.345,1.156Zm2.898-3.195h1.735l-.249.807h-1.758l-.264.883h1.538l-1.165,1.64c-.082.12-.155.163-.236.197-.082.041-.189.09-.312.09h-.427l-.293.967h1.116c.58,0,.923-.264,1.176-.61l.799-1.093.171,1.11c.036.208.186.33.287.377.112.056.227.152.39.167.175.007.301.013.385.013h.548l.329-1.082h-.216c-.124,0-.338-.021-.374-.06-.036-.047-.036-.12-.056-.231l-.174-1.112h-.712l.312-.372h1.754l.27-.883h-1.624l.253-.807h1.619l.3-.996h-4.828l-.295.996Zm-14.652,3.42l.405-1.347h1.664l.304-1.002h-1.666l.254-.829h1.628l.302-.97h-4.073l-.295.97h.925l-.247.829h-.928l-.307,1.019h.925l-.54,1.782c-.073.236.034.326.102.435.069.107.14.177.298.218.163.036.275.058.427.058h1.876l.334-1.11-.832.114c-.161,0-.605-.019-.557-.168Zm.191-6.448l-.422.762c-.09.167-.171.27-.245.317-.064.04-.192.057-.377.057h-.22l-.294.975h.731c.351,0,.621-.129.75-.193.138-.074.175-.032.282-.135l.247-.214h2.282l.303-1.015h-1.67l.292-.554h-1.658Zm3.369,6.468c-.039-.056-.011-.155.049-.36l.624-2.064h2.219c.323-.005.557-.008.709-.019.163-.017.34-.075.534-.18.199-.11.302-.225.388-.358.096-.132.251-.422.383-.868l.784-2.612-2.302.013s-.709.105-1.021.22c-.315.129-.765.489-.765.489l.208-.716h-1.422l-1.991,6.604c-.071.256-.118.443-.129.554-.004.12.152.24.253.33.119.09.295.075.464.09.178.013.43.022.779.022h1.093l.335-1.133-.978.092c-.105,0-.18-.056-.212-.103Zm1.075-3.819h2.33l-.148.464c-.021.011-.071-.023-.308.005h-2.018l.143-.469Zm.467-1.557h2.35l-.169.559s-1.108-.011-1.285.022c-.781.135-1.236.552-1.236.552l.34-1.133Zm1.768,3.577c-.019.069-.05.112-.092.143-.047.03-.124.041-.238.041h-.332l.02-.565h-1.381l-.056,2.765c-.002.199.017.315.163.407.146.115.596.13,1.201.13h.866l.312-1.035-.753.041-.251.015c-.034-.015-.067-.028-.103-.064-.032-.031-.085-.012-.077-.212l.006-.709.79-.033c.427,0,.609-.139.765-.271.148-.127.197-.272.253-.469l.133-.627h-1.086l-.138.443Z"/></g></svg>