<?xml version="1.0" encoding="UTF-8"?><svg id="_レイヤー_2" xmlns="http://www.w3.org/2000/svg" viewBox="0 0 24 16"><g id="Payment-Methods"><g id="visa-color"><rect id="card_bg" width="24" height="16" rx="2" ry="2" fill="#292c6b"/><path id="visa-logo" d="m11.93,5.69l-1,4.63h-1.19l1-4.63h1.19Zm5,3l.63-1.74.44,1.73-1.07.01Zm1.34,1.64h1.1l-1-4.63h-1c-.223,0-.425.134-.51.34l-1.8,4.29h1.26l.25-.69h1.53l.17.69Zm-3.1-1.52c0-1.22-1.68-1.29-1.67-1.83,0-.17.16-.35.5-.39.404-.038.811.031,1.18.2l.21-1c-.355-.131-.731-.199-1.11-.2-1.19,0-2,.63-2,1.53,0,.66.6,1,1.05,1.26s.62.37.62.57-.37.45-.71.45c-.43.019-.857-.074-1.24-.27l-.22,1c.427.155.876.236,1.33.24,1.26,0,2.08-.62,2.08-1.58m-4.97-3.1l-1.94,4.63h-1.28l-1-3.69c-.02-.175-.124-.328-.28-.41-.357-.172-.733-.303-1.12-.39v-.14h2c.277.002.51.206.55.48l.51,2.67,1.34-3.15h1.22Z" fill="#fff"/></g></g></svg>