<?xml version="1.0" encoding="UTF-8"?><svg id="_レイヤー_2" xmlns="http://www.w3.org/2000/svg" viewBox="0 0 545.66 160.93"><defs><style>.cls-1{fill:#fff;}.cls-2{fill:#1677ff;}.cls-3{fill:#3e3a39;}</style></defs><g id="_图层_1"><g><g><path class="cls-2" d="m135.55,0H25.85C11.57,0,0,11.54,0,25.78v109.37c0,14.23,11.57,25.78,25.85,25.78h109.69c14.28,0,25.84-11.54,25.84-25.78V25.78c0-14.24-11.56-25.78-25.84-25.78Z"/><path class="cls-1" d="m132.88,101.05c-6.46-2.16-15.12-5.45-24.78-8.94,5.8-10.05,10.43-21.49,13.47-33.93h-31.81v-11.43h38.97v-6.38h-38.97v-19.05h-15.91c-2.79,0-2.79,2.75-2.79,2.75v16.3H31.65v6.38h39.41v11.43h-32.54v6.38h63.11c-2.31,7.93-5.41,15.38-9.09,22.15-20.48-6.74-42.33-12.2-56.06-8.84-8.78,2.16-14.43,6.01-17.76,10.04-15.25,18.5-4.31,46.6,27.89,46.6,19.04,0,37.38-10.59,51.6-28.03,21.2,10.16,63.18,27.61,63.18,27.61v-24.87s-5.27-.42-28.51-8.18Zm-89.27,22.71c-25.11,0-32.53-19.72-20.12-30.51,4.14-3.65,11.71-5.43,15.74-5.83,14.92-1.47,28.72,4.2,45.02,12.13-11.45,14.9-26.04,24.2-40.63,24.2Z"/></g><g><path class="cls-3" d="m459.72,40.18h61.47v12.17h21.95v-14.42s0-.05,0-.09c0-3.24-2.54-5.86-5.68-5.92h-35.53v-11.34h-22.98v11.34h-41.17v20.42h21.95v-12.17Z"/><polygon class="cls-3" points="326.74 21.63 304.23 74.86 321.5 74.86 321.5 138.2 340.38 138.2 340.38 54.18 333.54 54.18 347.76 21.63 326.74 21.63"/><path class="cls-3" d="m545.66,135.3l-6.9-23.3c-.46-1.49-1.8-2.56-3.4-2.56h-18.28l5.3,17.89h-21.49v-34.66h42.2v-8.25h-42.2v-16.31h42.2v-8.25h-105.32v8.25h42.2v16.31h-42.2v8.25h42.2v34.66h-42.2v8.25h107.89l-.09-.28h.09Z"/><path class="cls-3" d="m375.02,65.26c-.72-1.46-2.18-2.47-3.88-2.49h-16.35l12.73,40.1h19.34l-11.84-37.61Z"/><path class="cls-3" d="m416.4,22.6h-19.62v20.5h-48.36v8.25h48.36v73.71c-.17,1.68-1.5,3-3.17,3.09h-9.97v8.54h25.43c4.02-.17,7.24-3.51,7.33-7.65V51.35h7.97v-8.25h-7.97v-20.5Z"/><path class="cls-3" d="m293.97,59.95h-37.7v-13.51h43.71v-8.41h-43.71v-17.12h-19.48c-2.13,0-3.86,1.79-3.86,4h0v13.12h-43.4v8.41h43.4v13.51h-36.63v8.41h72.96s-4.04,15.78-24.06,32.75c-17.93-13.57-23.92-24.39-23.92-24.39h-19.57c7.92,13.72,19.17,24.72,31.28,33.43-11.13,7.23-25.56,14.21-44.23,19.78v10.08s28.79-5.43,56.62-21.83c27.87,16.27,55.87,21.83,55.87,21.83v-9.54c-17.92-6.52-32.11-13.69-43.26-20.61,16.15-11.96,30.29-28.2,35.97-49.92Z"/></g></g></g></svg>