<?xml version="1.0" encoding="UTF-8"?><svg id="_レイヤー_2" xmlns="http://www.w3.org/2000/svg" xmlns:xlink="http://www.w3.org/1999/xlink" viewBox="0 0 235.43 235.43"><defs><clipPath id="clippath"><rect width="235.43" height="235.43" style="fill:none; stroke-width:0px;"/></clipPath></defs><g id="_レイヤー_1-2"><g style="clip-path:url(#clippath);"><rect width="235.43" height="235.43" rx="13.38" ry="13.38" style="fill:#fff; stroke-width:0px;"/><path d="M0,117.71h235.43v105.72c0,6.63-5.37,12-12,12H12C5.37,235.43,0,230.05,0,223.42v-105.72ZM49.87,183.32c5.4,0,10.35.17,15.29-.03,12.53-.5,22.98-10.17,23.42-22.33.48-13.15-5.39-22.74-18.76-25.35-10.47-2.05-21.17-.54-31.91-.74v69.47h11.96v-21.01ZM148.6,204.44c-8.64-23.53-17.08-46.55-25.49-69.45h-9.73c-8.45,23.08-16.87,46.07-25.36,69.27h12.94c1.97-4.48,2.79-9.12,4.91-13.08h24.86c2.23,4.43,2.8,9.17,5.17,13.26h12.71ZM177.87,204.37c0-5.17.15-9.84-.05-14.49-.17-3.95.71-7.4,2.59-10.93,7.11-13.35,13.95-26.84,20.83-40.31.56-1.09,1.81-2.08,1.11-3.64h-13.46c-5.65,11.5-11.23,22.87-17.13,34.87-5.99-12.22-11.6-23.67-17.07-34.82h-13.67c-.33,1.42.55,2.14.98,2.97,7.26,14.18,14.53,28.36,21.92,42.48,1.2,2.3,1.78,4.55,1.73,7.13-.12,5.59-.04,11.18-.04,16.73h12.24Z" style="fill:#ea5506; stroke-width:0px;"/><path d="M184.72,32.91c-4.52,16.97-8.93,33.52-13.35,50.08-.81,3.05-1.66,6.09-.28,9.03,2.8,1.39,4.79-.04,6.74-1.26,4-2.51,7.08-6.04,10.22-9.5,6.9-7.58,12.39-16.22,18.51-24.74,2.86.2,6.05-1.22,8.89,2-5.63,7.53-10.7,15.22-16.96,22.15-3.63,4.02-7.56,7.73-11.1,11.79-3.81,4.36-8.36,7.21-13.89,8.52-10.15,2.4-16.71-.85-21.12-10.6-9,9.57-19.82,14-32.77,10.94-5.54-1.31-8.9-2.89-12.35-10.79-1.92.79-2.89,2.65-4.42,3.88-3.95,3.19-8.29,5.61-13.25,6.72-9.59,2.14-15.76-1.09-20.42-10.69-5.89,5.76-12.35,10.37-20.8,11.49-4.39.58-8.68.34-12.88-.75-8.55-2.21-13.24-9.16-11.57-18.3,4.72-25.76,18.93-42.97,45.41-48.1,10.51-2.03,21.14-2.83,32.17-2.13-2.66,10.15-5.33,20.08-7.85,30.04-2.45,9.71-6.47,19.14-6.36,29.02,3.13,1.5,4.98.64,6.68-.42,6.57-4.08,11.65-9.39,13.75-17.07,2.06-7.55,3.85-15.18,6.15-22.65,3.01-9.74,8.68-17.02,19.5-18.78,1.78-.29,3.6-.7,5.69.21-2.34,8.72-4.74,17.44-7,26.19-2.34,9.04-5.46,17.9-6.81,27.19-.76,5.22,2.16,7.95,7.44,6.72,9.29-2.17,15.2-8.47,19.46-16.64,3.09-5.93,3.82-12.56,5.65-18.86,1.25-4.31,2.17-8.72,4.36-12.72,4.7-8.59,12.85-13.01,22.58-11.96ZM78.22,41.05c-6.4.6-12.39,3.64-16.73,7.61-10.25,9.38-16.18,21.58-19.11,35.32-1.75,8.23,2.51,11.13,10.18,8.36,1.24-.45,2.46-1.05,3.59-1.73,7.47-4.5,12.09-11.12,14.81-19.35,3.01-9.09,4.57-18.55,7.45-27.66.24-.77.51-1.6-.19-2.55Z" style="fill:#ea5506; stroke-width:0px;"/><path d="M49.87,183.32v21.01h-11.96v-69.47c10.73.19,21.44-1.31,31.91.74,13.37,2.62,19.24,12.2,18.76,25.35-.44,12.16-10.89,21.83-23.42,22.33-4.94.2-9.89.03-15.29.03ZM50.18,146.42v25.8c3.58,0,6.87.02,10.16.02,5.01,0,8.71-.97,12.38-4.64,3.02-3.02,3.44-8.46,2.78-12.64-.74-4.72-4.59-7.9-9.39-8.41-5.2-.55-10.51-.12-15.93-.12Z" style="fill:#fefdfd; stroke-width:0px;"/><path d="M148.6,204.44h-12.71c-2.36-4.09-2.94-8.83-5.17-13.26h-24.86c-2.12,3.96-2.94,8.61-4.91,13.08h-12.94c8.49-23.2,16.91-46.19,25.36-69.27h9.73c8.41,22.9,16.85,45.92,25.49,69.45ZM127.34,180.16c-2.97-8.67-5.73-16.72-8.88-25.89-3.25,9.33-6.09,17.45-9.03,25.89h17.91Z" style="fill:#fefdfd; stroke-width:0px;"/><path d="M177.87,204.37h-12.24c0-5.55-.08-11.14.04-16.73.06-2.58-.53-4.83-1.73-7.13-7.38-14.12-14.65-28.3-21.92-42.48-.43-.84-1.31-1.56-.98-2.97h13.67c5.46,11.14,11.08,22.6,17.07,34.82,5.89-12,11.48-23.37,17.13-34.87h13.46c.7,1.56-.55,2.54-1.11,3.64-6.88,13.47-13.72,26.96-20.83,40.31-1.88,3.53-2.76,6.98-2.59,10.93.2,4.65.05,9.32.05,14.49Z" style="fill:#fefdfd; stroke-width:0px;"/><path d="M50.18,146.42c5.42,0,10.73-.43,15.93.12,4.8.51,8.65,3.68,9.39,8.41.66,4.18.13,9.73-2.78,12.64-3.68,3.68-7.59,4.8-12.38,4.64-3.28-.1-6.58-.02-10.16-.02v-25.8Z" style="fill:#ea5506; stroke-width:0px;"/><path d="M127.34,180.16h-17.91c2.94-8.44,5.78-16.56,9.03-25.89,3.14,9.17,5.9,17.22,8.88,25.89Z" style="fill:#ea5506; stroke-width:0px;"/></g></g></svg>