<?xml version="1.0" encoding="UTF-8"?><svg id="_レイヤー_2" xmlns="http://www.w3.org/2000/svg" viewBox="0 0 367.66 82.15"><defs><style>.cls-1{fill:#35322c;}.cls-1,.cls-2,.cls-3,.cls-4{fill-rule:evenodd;}.cls-2{fill:#00a0e9;}.cls-3{fill:#373530;}.cls-4{fill:#332d28;}</style></defs><g id="Layer_1"><g><path class="cls-3" d="m30.16,23.64l12.44,26.19h-25.39l12.95-26.19Zm19.09,40.92h15.21L36.05,3.93h-4.16c-.65,0-1.32.18-1.93.54-.59.37-1.04.88-1.33,1.48L0,64.55h10.15l5.13-9.9h29.22l4.76,9.9Z"/><path class="cls-3" d="m84.02,64.55h-13.76V6.54c0-.66.26-1.34.78-1.84.52-.51,1.2-.77,1.88-.77h11.1v60.63"/><path class="cls-1" d="m96.12,22.44c0-.66.26-1.33.77-1.83.52-.51,1.21-.76,1.88-.76h11.2v44.71h-13.85V22.44"/><path class="cls-4" d="m135.48,52.1c0,1.09.21,2.1.62,3.06.42.96,1,1.79,1.75,2.5.75.71,1.67,1.27,2.73,1.67,1.07.4,2.23.61,3.52.61,1.19,0,2.31-.4,3.37-1.18,1.05-.77,1.96-1.84,2.74-3.22.78-1.37,1.41-3.01,1.87-4.94.46-1.92.7-4.01.7-6.25,0-2.89-.2-5.43-.61-7.6-.41-2.18-.99-4.01-1.73-5.48-.74-1.48-1.62-2.57-2.64-3.31-1.03-.74-2.15-1.1-3.37-1.1-.88,0-1.73.14-2.56.43-.82.29-1.61.68-2.36,1.19-.76.51-1.47,1.09-2.16,1.77-.68.69-1.31,1.41-1.87,2.15v19.71Zm-13.93-29.64c0-.66.26-1.34.79-1.85.52-.5,1.21-.77,1.89-.77h11.25v3.5c1.6-1.28,3.43-2.33,5.48-3.16,2.06-.84,4.47-1.25,7.23-1.25,2.92,0,5.58.55,7.97,1.68,2.38,1.13,4.43,2.65,6.13,4.57,1.7,1.91,3.02,4.14,3.94,6.69.93,2.54,1.38,5.24,1.38,8.1,0,3.68-.54,7.05-1.63,10.15-1.09,3.09-2.66,5.78-4.71,8.04-2.05,2.27-4.51,4.04-7.42,5.33-2.9,1.27-6.15,1.91-9.75,1.91-1.82,0-3.4-.07-4.73-.2-1.33-.15-2.62-.46-3.88-.96v17.92h-13.93V22.47Z"/><path class="cls-4" d="m183.73,49.75c0-5.19,4.32-9.16,9.61-9.54,3.35-.24,5.37.35,6.56,1.08v15.32c-1.71,1.58-4.02,2.55-6.56,2.55-5.31,0-9.61-4.21-9.61-9.41m19.8-29.4c-6.65-1.86-15.06-2.21-26.55.72.38,1.12.88,3.12,1.24,4.28,18.18-3.17,21.69-.71,21.69,6.98v2.4c-3.32-.23-7.23-.78-10.43-.83-12.43-.19-16.95,9.5-16.95,15.62,0,10.7,10.4,20.63,27.38,13.3v1.71h14.2V31.9c0-6.34-5.58-10.16-10.58-11.55"/><path class="cls-4" d="m217.84,19.01h14.7l14.49,27.59,11.92-25.81c.23-.51.62-.96,1.14-1.31.52-.32,1.1-.47,1.68-.47h7.85l-23.06,49.75c-5.55,13.54-19.01,11.63-21.48,11.63v-7.52c1.85,0,8.04.07,10.75-2.91.6-.66,1.24-1.91,1.64-2.76.41-.85.77-1.59,1.09-2.26l1.62-3.58-22.33-42.34"/><path class="cls-2" d="m110.47,6.6c0,3.65-3.34,6.62-7.48,6.62s-7.47-2.97-7.47-6.62,3.34-6.6,7.47-6.6,7.48,2.96,7.48,6.6"/><path class="cls-2" d="m367.66,65.03h-10.19c-.33,0-.64-.18-.8-.46l-11.84-20.4-6.09,7.08v13.78h-8.27c-.51,0-.93-.42-.93-.93V20.12c0-.51.42-.93.93-.93h8.27v18.68c0,.26.21.46.46.46.14,0,.27-.06.36-.17l15.51-18.64c.18-.21.44-.33.71-.33h10.75l-15.62,18.22,16.74,27.62Zm-49.2,0h-8.39c-.51,0-.93-.42-.93-.93v-17.33c0-.51-.42-.93-.93-.93h-15.23v19.19h-8.39c-.51,0-.93-.42-.93-.93V20.12c0-.51.42-.93.93-.93h8.39v18.74h15.23c.51,0,.93-.42.93-.93v-16.88c0-.51.42-.93.93-.93h8.39v45.84Z"/></g></g></svg>