<?xml version="1.0" encoding="UTF-8" standalone="no"?>
<!DOCTYPE svg PUBLIC "-//W3C//DTD SVG 1.1//EN" "http://www.w3.org/Graphics/SVG/1.1/DTD/svg11.dtd">
<svg viewBox="0 0 512 512" xmlns="http://www.w3.org/2000/svg" xmlns:serif="http://www.serif.com/" style="fill-rule:evenodd;clip-rule:evenodd;stroke-linejoin:round;stroke-miterlimit:2">
  <path d="M512 110A110 110 0 0 0 402 0H110A110 110 0 0 0 0 110v292a110 110 0 0 0 110 110h292a110 110 0 0 0 110-110V110z" style="fill:rgb(204,3,51)"/>
  <circle cx="145" cy="380.5" r="35.5" style="fill:rgb(239,229,99)" transform="matrix(1.01408 0 0 1 224.958 -6.5)"/>
  <circle cx="145" cy="380.5" r="35.5" style="fill:rgb(239,229,99)" serif:id="(楕円)" transform="matrix(1.01408 0 0 1 108.958 -6.5)"/>
  <circle cx="145" cy="380.5" r="35.5" style="fill:rgb(239,229,99)" transform="matrix(1.01408 0 0 1 -7.042 -6.5)"/>
  <path d="M344 159c2.924 0 14.795.045 18.696.045-1.476 6.864-11.911 67.221.62 85.505 11.507 16.79 37.684-9.099 37.684-9.099v21.389s-18.26 17.566-39.731 10.062C326.343 254.406 341.876 173.394 344 159zm110 97h-18.814c0-39.29-2.186-59-24.08-94.203 9.382 0 16.039.16 21.074.16 19.491 28.41 23.084 71.618 21.82 94.043zM272.058 148.775c4.739 1.008 15.242 2.92 18.285 3.63-.897 10.629-11.645 59.283-23.846 96.842 14.286-1.074 30.843-7.042 31.991-7.438-1.617-6.435-11.397-29.334-11.397-29.334s9.27-4.707 14.311-7.155c5.785 7.299 22.125 54.733 23.334 60.16-2.26 1.315-16.515 8.801-16.515 8.801s-2.626-13.948-4.466-16.533c-3.623 1.437-32.639 11.234-62.837 13.159-.733-2.512-2.824-14.115-3.357-17.971 2.314.114 6.896-.148 9.016-.454 9.138-24.853 21.813-80.447 25.481-103.707zM236 170h15v16h-15v19.303c5.18-.812 15-5.864 15-5.864V216s-10.003 5.55-15 6.5V259c0 9.954-8.653 12.258-12.226 13.308C220.201 273.357 210 273 210 273l-6-17s8.212-.186 10.226-.186c2.473 0 4.774-1.388 4.774-5.814v-21s-10.761 3.568-17.553 4.335c-.692-3.52-3.064-14.774-3.549-17.313C204 216 219 211.438 219 211.438V186h-18.012v-16H219v-22h17v22zM136 118h30v138s-27.082 15.148-33 18.237c-8.009 4.18-15.966 4.378-25 4.378-15.169 0-56-8.638-56-56.615 0-39 34-56 54-56 19 0 30 8 30 8v-56zm-27 77c14.784 0 27 11.02 27 27s-10.884 28-27 28-26-12.878-26-28 11.216-27 26-27z" style="fill:white"/>
</svg>
