<svg xmlns="http://www.w3.org/2000/svg" viewBox="0 0 76.96 120.26"><defs><style>.cls-1{fill:#0e0046;}.cls-2{fill:#bf0000;}</style></defs><title>アセット 5</title><g id="レイヤー_2" data-name="レイヤー 2"><g id="logo"><path class="cls-1" d="M74.49,88.6l-9,26.39a7.39,7.39,0,0,1-12.79,2.57l3.6-3.8a2.23,2.23,0,0,0,1.82.95,1.86,1.86,0,0,0,1.75-1.5l.16-.52L51.23,88.6h6.22l5.39,15.73L68.27,88.6Z"/><path class="cls-1" d="M40.75,111.3a7.65,7.65,0,0,1-6.14,2.9c-6.26,0-11.33-5.91-11.33-13.12S28.51,88,34.93,88a7,7,0,0,1,5.82,2.89V80.32h5.94v33.24H41.54ZM29.22,101.08c0,4.2,2.58,7.57,5.79,7.57s5.74-3.13,5.74-7.53S38.33,93.55,35,93.55C31.76,93.55,29.22,96.88,29.22,101.08Z"/><path class="cls-1" d="M5.94,87.93v6.54H17.59V100H5.94v8H19.06v5.54H0V82.38H19.06v5.55Z"/><polygon class="cls-2" points="14.4 77.64 3.99 68.91 76.96 68.91 14.4 77.64"/><path class="cls-2" d="M26.25,62.36V43h8.38L49.14,62.36H64L46.44,39A21.49,21.49,0,0,0,34,0H14.4V62.36Zm0-50.52H34a9.67,9.67,0,1,1,0,19.33H26.25Z"/></g></g></svg>