<?xml version="1.0" encoding="UTF-8"?><svg id="_レイヤー_2" xmlns="http://www.w3.org/2000/svg" viewBox="0 0 43.062 28.004"><defs><style>.cls-1{fill:#ebca00;}.cls-2{fill:#d0a200;}.cls-3{fill:#231815;}.cls-4{fill:#f2bc00;}</style></defs><g id="_レイヤー_1-2"><path class="cls-1" d="m43.062,25.833c0,1.184-.966,2.153-2.151,2.153l-38.749.017c-1.184,0-2.151-.967-2.152-2.151L0,2.171C-.001.988.966.018,2.15.017l38.749-.017c1.185,0,2.152.969,2.153,2.153l.01,23.68Z"/><rect class="cls-2" x="10.773" y="24.608" width="5.381" height="3.391"/><rect class="cls-4" x="16.155" y="24.605" width="5.38" height="3.391"/><path class="cls-2" d="m.009,24.614v1.237c0,1.185.969,2.153,2.152,2.153l3.23-.002v-3.39s-5.382.002-5.382.002Z"/><rect class="cls-4" x="5.391" y="24.61" width="5.381" height="3.391"/><rect class="cls-4" x="26.917" y="24.601" width="5.381" height="3.391"/><path class="cls-4" d="m37.68,24.598l.002,3.391,3.23-.002c1.183,0,2.15-.969,2.15-2.154v-1.237s-5.382.002-5.382.002Z"/><rect class="cls-2" x="32.3" y="24.598" width="5.382" height="3.391"/><rect class="cls-2" x="21.537" y="24.603" width="5.381" height="3.391"/><path class="cls-3" d="m5.955,7.23c0-1.197.973-2.173,2.17-2.173,1.201-.001,2.171.974,2.171,2.171.001,1.196-.968,2.174-2.169,2.174-1.197,0-2.171-.976-2.172-2.172"/><path class="cls-3" d="m10.004,19.918c.674.122,1.337.31,1.981.562l-.225.575c-1.163-.45-2.382-.68-3.628-.679-1.245,0-2.468.232-3.625.682l-.225-.575c.646-.252,1.306-.441,1.981-.563l-.003-6.428v-1.593c-.676-.121-1.336-.314-1.982-.561l.224-.58c.57.217,1.158.395,1.757.502.618.118,1.244.178,1.869.177.517,0,1.221-.117,1.872-.25v2.304s.004,6.427.004,6.427Z"/><path class="cls-3" d="m26.092,6.244c-6.029,1.8-9.991-.057-10.027-.075l-.266.557c.072.043.985.469,2.563.731l.005,12.295c-1.577.263-2.49.69-2.562.732l.267.557c.035-.016,3.996-1.878,10.027-.084,4.065,1.205,8.025.795,10.588-1.124,1.929-1.444,2.949-3.603,2.948-6.238-.001-2.636-1.023-4.793-2.954-6.233-2.564-1.919-6.525-2.325-10.589-1.118m7.998,1.109c.245.236.469.509.651.796.188.298.346.617.474.944.468,1.18.588,2.491.629,3.749.007.252.011.503.011.755,0,.25-.003.503-.01.754-.04,1.258-.159,2.569-.626,3.749-.128.328-.285.647-.473.946-.182.287-.406.559-.651.796-.808.783-1.855,1.106-2.958,1.153-.389.018-.781.017-1.17,0-.403-.019-.806-.054-1.207-.106-.414-.054-.825-.124-1.234-.211-.421-.09-.84-.197-1.252-.32-1.53-.452-2.924-.684-4.161-.774l-.005-11.963c1.237-.091,2.63-.323,4.16-.776.412-.124.831-.23,1.252-.321.408-.087.82-.159,1.233-.213.402-.053.804-.088,1.208-.108.388-.016.78-.017,1.169,0,1.104.048,2.15.371,2.96,1.151"/></g></svg>