<?xml version="1.0" encoding="UTF-8"?><svg id="_レイヤー_2" xmlns="http://www.w3.org/2000/svg" viewBox="0 0 1358.96 547.54"><g id="_レイヤー_1-2"><polygon points="1306.52 207.47 1250.11 347.15 1193.02 207.47 1136.47 207.47 1224.69 404.96 1178.24 513.69 1227.01 513.69 1358.96 207.47 1306.52 207.47" style="fill:#222;"/><path d="M770.91,103.11h-69.36v-.08h-50.22v322.77h50.22v-125.29h69.36c65.96,0,105.33-41.01,105.33-98.03s-39.37-99.37-105.33-99.37ZM779.39,253.17h-77.2v-102.72h77.2c33.91,0,45.95,31.25,45.95,52.03s-12.07,50.69-45.95,50.69Z" style="fill:#222;"/><path d="M1002.32,204.59c-65.05,0-112.31,46.82-112.31,111.32s44.28,111.32,107.6,111.32c26,0,54-15.41,64.18-34.71v33.35h50.79v-109.96c0-67.63-42.64-111.32-110.26-111.32ZM1001.85,382.58c-37.35,0-60.6-25.55-60.6-66.67,0-38.01,26.08-66.68,60.6-66.68,36.79,0,59.49,26.17,59.49,66.68,0,32.32-20.16,66.67-59.49,66.67Z" style="fill:#222;"/><path d="M276.01,542.85l211.8-105.99c14.97-7.49,24.42-22.75,24.42-39.43v-247.31c0-16.68-9.45-31.94-24.42-39.43L276.01,4.7c-12.52-6.26-27.28-6.26-39.8,0L24.42,110.69C9.45,118.18,0,133.43,0,150.12v247.31c0,16.68,9.45,31.94,24.42,39.43l211.8,105.99c12.52,6.26,27.28,6.26,39.8,0Z" style="fill:#ff0211;"/><circle cx="432.74" cy="153.08" r="114.81" style="fill:#4dc9ff;"/><path d="M70.48,362.85l-22.44-11.27v-66.41c0-19.45,10.96-38.83,33.55-36.38,21.13,2.29,37.44,21.04,42.5,33.34,7.91-6.93,15.16-8.4,25.56-6.97,11.55,1.59,55.08,18.18,55.08,77.1v78.23l-24.6-12.38v-73.31c0-21.5-13.15-39.46-30.87-41.52-7.31-.85-13.62,5.03-13.84,17.65-.21,12.62,0,74.56,0,74.56l-22.57-11.33v-69.4c0-30.66-19.77-40.32-28.43-41.28-4.88-.54-13.95,2.39-13.95,18.07v71.29Z" style="fill:#fff;"/></g></svg>