<?xml version="1.0" encoding="UTF-8"?><svg id="_レイヤー_2" xmlns="http://www.w3.org/2000/svg" viewBox="0 0 44.802 28.121"><defs><style>.cls-1{fill:#fff;}.cls-2{fill:#faf1a0;}.cls-3{fill:#facd89;}.cls-4{fill:#efa5aa;}.cls-5{fill:#f3c6da;}.cls-6{fill:#421e14;}.cls-7{stroke:#231815;stroke-width:.018px;}.cls-7,.cls-8{fill:none;}.cls-9{fill:#bbb3d8;}.cls-10{fill:#8cc8e6;}.cls-11{fill:#cde18d;}</style></defs><g id="_レイヤー_1-2"><rect class="cls-1" x=".3" y=".009" width="44.279" height="28.103" rx="1.559" ry="1.559"/><rect class="cls-4" y="15.507" width="44.802" height="2.58"/><rect class="cls-5" y="12.93" width="44.802" height="2.578"/><rect class="cls-3" y="10.354" width="44.802" height="2.576"/><rect class="cls-2" y="7.774" width="44.802" height="2.58"/><rect class="cls-11" y="5.197" width="44.802" height="2.578"/><rect class="cls-10" y="2.618" width="44.802" height="2.579"/><rect class="cls-9" y=".009" width="44.802" height="2.609"/><path class="cls-8" d="m1.858.009h41.161c.86,0,1.559.699,1.559,1.559v24.987c0,.859-.698,1.557-1.557,1.557H1.858c-.86,0-1.559-.699-1.559-1.559V1.568C.299.707.998.009,1.858.009Z"/><path class="cls-6" d="m40.634,19.677h-.879c-.488,0-.879.393-.879.879v5.035c0,.485.391.878.879.878h.879c.487,0,.879-.393.879-.878v-5.035c0-.486-.392-.879-.879-.879m-.119,5.914h-.64c-.067,0-.12-.055-.12-.119v-4.797c0-.065.053-.119.12-.119h.64c.066,0,.119.054.119.119v4.797c0,.064-.053.119-.119.119"/><path class="cls-6" d="m37.065,24.715h-.623c-.069,0-.125.053-.128.122v.636c0,.064-.053.118-.119.118h-.642c-.066,0-.121-.054-.121-.118v-4.799c0-.064.054-.117.121-.117h.642c.066,0,.119.053.119.117v.64c.003.067.059.12.128.12h.623c.07,0,.127-.057.127-.124v-.753c0-.487-.394-.88-.879-.88h-.881c-.487,0-.878.393-.878.88v5.034c0,.486.391.879.878.879h.881c.485,0,.879-.393.879-.879v-.75c0-.071-.057-.126-.127-.126"/><path class="cls-6" d="m31.915,19.677h-1.443c-.07,0-.126.056-.126.126v.626c0,.069.056.127.126.127h1.443v.915h-.879c-.487,0-.878.392-.878.877,0,0-.002,3.25,0,3.253.004.479.392.864.869.868h1.649c.066-.004.118-.06.118-.126v-5.787c0-.486-.392-.879-.879-.879m-.118,5.914h-.644c-.064,0-.117-.055-.117-.119v-3.004c0-.066.053-.12.117-.12h.642c.068,0,.12.054.12.12v3.004c0,.064-.052.119-.118.119"/><path class="cls-6" d="m27.425,19.677h-1.63c-.069,0-.126.056-.126.127v6.539c0,.07.057.127.126.127h.625c.071,0,.127-.057.127-.127v-5.669c0-.064.053-.117.119-.117h.64c.066,0,.119.053.119.117v5.669c0,.07.057.127.129.127h.623c.072,0,.126-.057.126-.127v-5.786c.001-.487-.39-.88-.878-.88"/><path class="cls-6" d="m22.936,19.677h-1.441c-.073,0-.126.056-.126.126v.626c0,.069.053.127.126.127h1.441v.915h-.879c-.487,0-.878.392-.878.877v3.253c.004.479.391.864.871.868h1.648c.067-.004.116-.06.116-.126v-5.787c0-.486-.391-.879-.878-.879m-.119,5.914h-.643c-.064,0-.117-.055-.117-.119v-3.004c0-.066.053-.12.117-.12h.643c.063,0,.119.054.119.12v3.004c0,.064-.056.119-.119.119"/><path class="cls-6" d="m18.446,19.677h-1.63c-.071,0-.129.056-.129.127v6.539c0,.07.058.127.129.127h.623c.07,0,.129-.057.129-.127v-5.669c0-.064.052-.117.117-.117h.642c.066,0,.119.053.119.117v5.669c0,.07.057.127.126.127h.624c.071,0,.128-.057.128-.127v-5.786c0-.487-.393-.88-.878-.88"/><rect class="cls-7" x=".3" y=".009" width="44.279" height="28.103" rx="1.559" ry="1.559"/></g></svg>