<?xml version="1.0" encoding="UTF-8"?><svg id="_レイヤー_2" xmlns="http://www.w3.org/2000/svg" viewBox="0 0 120.543 143"><defs><style>.cls-1{fill:#6f72ae;}.cls-2{fill:#fff;}.cls-3{fill:#b7b5d7;}</style></defs><g id="_レイヤー_1-2"><path class="cls-1" d="m112.652,0H7.951c-1.375,0-2.668.343-3.798.946C1.684,2.289,0,4.904,0,7.932v127.145c0,4.375,3.576,7.924,7.946,7.924h104.706c4.369,0,7.891-3.549,7.891-7.924V7.965c0-4.422-3.521-7.965-7.891-7.965Z"/><path class="cls-3" d="m63.706.047H7.091C3.369.439.421,3.347,0,7.052v128.942c.413,3.602,3.267,6.524,6.895,7.006h34.953v-49.694h-22.203v-6.554c17.145,0,38.328-7.387,50.31-14.816v20.505c28.673-2.767,43.151-20.885,43.151-46.492C113.107,19.612,92.951.047,63.706.047Zm-9.709,65.104c-9.709,0-17.489-7.84-17.489-17.528s7.78-17.517,17.489-17.517,17.545,7.852,17.545,17.517-7.836,17.528-17.545,17.528Z"/><path class="cls-2" d="m110.041,15.501c1.874,0,2.723.13,2.723,2.578,0,4.064-.965,6.466-6.072,6.466-5.45,0-6.643-3.1-6.643-6.688v-2.356h9.992m-25.724-4.985v4.985h13.63v1.597c0,5.614,0,12.44,8.572,12.44,5.395,0,8.406-3.646,8.406-9.211V6.132h-1.025c-.683,4.27-.683,4.383-5.168,4.383h-24.415Z"/><path class="cls-2" d="m99.533,36.891c3.238,0,3.976-.737,4.092-3.48h.909l1.42,8.046h-21.637v-4.566h15.216m12.892-.493c1.53,0,2.84,1.278,2.84,2.844s-1.248,2.953-2.84,2.953-2.839-1.386-2.839-3.005c0-1.514,1.248-2.791,2.839-2.791Z"/><path class="cls-2" d="m112.764,56.542v-3.133c0-3.59-1.132-4.622-4.425-4.913v-1.262l6.587.188v23.275l-6.704.169v-1.284c3.466,0,4.542-1.475,4.542-4.957v-3.069h-28.446v-5.016h28.446"/><path class="cls-2" d="m91.814,84.145c-3.122,0-5.507-1.553-5.507-4.203,0-1.658,1.42-2.717,3.521-2.717,4.314,0,4.541,5.307,4.597,6.92h-2.611m-7.497,0v4.558h13.857c4.485,0,7.779-.987,7.779-7.441,0-6.532-3.183-8.029-6.188-8.528v5.424c2.041,0,4.708.149,4.708,3.149,0,2.839-3.232,2.839-6.072,2.839h-2.328c-.117-2.884-.627-11.922-6.987-11.922-2.667,0-5.224,2.528-5.224,6.083,0,3.504,2.219,5.052,3.184,5.839h-2.728Z"/><path class="cls-2" d="m110.041,102.843c1.874,0,2.723.155,2.723,2.584,0,4.037-.965,6.466-6.072,6.466-5.45,0-6.643-3.089-6.643-6.659v-2.391h9.992m-25.724-4.978v4.978h13.63v1.586c0,5.656,0,12.466,8.572,12.466,5.395,0,8.406-3.649,8.406-9.238v-14.162h-1.025c-.683,4.27-.683,4.37-5.168,4.37h-24.415Z"/><path class="cls-2" d="m91.814,131.511c-3.122,0-5.507-1.603-5.507-4.209,0-1.686,1.42-2.744,3.521-2.744,4.314,0,4.541,5.328,4.597,6.953h-2.611m-7.497,0v4.559h13.857c4.485,0,7.779-.993,7.779-7.441,0-6.565-3.183-8.052-6.188-8.562v5.39c2.041,0,4.708.172,4.708,3.189,0,2.866-3.232,2.866-6.072,2.866h-2.328c-.117-2.883-.627-11.943-6.987-11.943-2.667,0-5.224,2.545-5.224,6.061s2.219,5.084,3.184,5.883h-2.728Z"/></g></svg>