<?xml version="1.0" encoding="UTF-8"?><svg id="_レイヤー_2" xmlns="http://www.w3.org/2000/svg" viewBox="0 0 42.537 28.359"><defs><style>.cls-1{fill:#fff;}.cls-2{fill:#d80c18;}.cls-3{fill:#004098;}</style></defs><g id="_レイヤー_1-2"><path class="cls-1" d="m6.712,26.261c.283-.439.652-1.011.744-1.156.195-.309.211-.656.046-.956-.093-.168-.375-.679-1.898-.679h-1.916c-.728.002-2.015.104-2.453.781l-1.085,1.682c-.152.227-.189.505-.108.761.094.29.326.518.652.643.343.133.828.211,1.327.21h1.865c.143,0,.422-.009.627-.025.176.042.443.112.583.151.301.081.561.119.794.119.774,0,1.015-.454,1.072-.595.069-.178.065-.444-.012-.619-.053-.123-.137-.232-.238-.317"/><path class="cls-1" d="m41.784,24.259c-.133-.032-.434-.07-.586-.07-.304,0-.536.046-.731.147l-1.985,1.018-.515-.765c-.277-.399-.792-.399-.96-.399-.113,0-.211.009-.251.012-.07.007-.311.033-.432.056-.313.062-.551.244-.67.497-.036-.086-.077-.158-.106-.198-.279-.356-.736-.356-.887-.356-.426,0-.566.028-.867.131-.029.011-.061.021-.102.021h-.003c-.086-.013-.249-.043-.343-.063-.366-.072-.676-.102-1.071-.101-.423,0-1.264.043-1.886.312-.009-.103-.03-.198-.063-.272-.244-.579-.943-.735-1.688-.771l3.579-6.214-1.592-.916-3.743,6.505,1.09.628c-.444.018-.829.069-1.109.113l-.176.028c-.246-.141-.515-.141-.736-.141-.277,0-.853,0-1.144.471l-1.363,2.104c-.014-.034-.021-.07-.04-.101-.13-.223-.367-.357-.621-.357-.026,0-.052.002-.079.004-.369.042-1.378.12-1.87.13l.254-.391c.079-.016.233-.034.512-.034h1.397c1.235,0,1.272-.86,1.272-.958,0-.089-.032-.865-1.081-.865h-1.834c-.728,0-2.013.103-2.457.784l-1.085,1.681c-.148.229-.187.509-.103.768.093.292.323.521.647.646.266.104.696.209,1.871.208.527,0,1.865-.056,2.383-.142.187-.031.355-.135.466-.289l.164-.228c.015.051.031.104.057.153.171.316.525.489.999.489h.225c.549,0,.932-.155,1.146-.472l.315-.492h1.317c.138,0,1.014-.018,1.717-.274-.018.135-.008.273.038.413.263.739,1.225.838,2.133.837.578,0,1.043-.071,1.383-.123l.153-.023c.243.134.505.133.722.133.081,0,.188-.005.306-.015.004.074,0,.149.028.221.083.221.269.387.499.443.402.1,1.116.177,1.626.177,1.086,0,1.662-.239,1.813-.313.14-.068,4.352-2.2,4.352-2.2.289-.151.469-.435.468-.741,0-.112-.036-.676-.753-.846m-6.195,1.251c.021-.034.021-.064.038-.097.026.067.06.129.103.182l.596.864-.005.003c-.103.053-.34.059-.533.06-.302,0-.567-.031-.811-.063l.612-.949Z"/><path class="cls-1" d="m18.207,23.955c-.171-.315-.524-.489-.998-.489h-.226c-.557,0-.94.158-1.144.47l-1.465,2.265c-.172.268-.186.587-.041.853.172.313.525.484.995.483h.225c.559,0,.945-.157,1.145-.469l1.461-2.258c.176-.267.192-.587.048-.855"/><path class="cls-1" d="m14.897,23.953c-.171-.313-.524-.485-.995-.485h-.225c-.561,0-.946.158-1.144.468l-1.128,1.744c-.086.017-.259.039-.592.039h-.436l.589-.903c.176-.268.193-.589.049-.856-.171-.316-.525-.491-.999-.491h-.225c-.558,0-.941.158-1.145.47l-1.253,1.938c-.209.3-.236.661-.075.967.264.505.908.712,2.225.711.996,0,1.407-.061,1.885-.131l.101-.015c.162.086.346.13.541.13h.179c.56,0,.945-.16,1.142-.469l1.465-2.264c.171-.268.186-.586.041-.853"/><rect class="cls-1" x="22.929" y="17.08" width="7.506" height="2.617" transform="translate(-2.565 32.339) rotate(-60.074)"/><path class="cls-1" d="m14.85,23.113c2.804-.002,5.465-1.016,7.57-2.849l.876.505,3.745-6.505-.873-.502c.144-.733.235-1.472.234-2.211,0-.501-.043-.99-.105-1.475.147.08.309.136.489.136h3.9s.002,3.898.002,3.898c0,.581.471,1.052,1.051,1.051h2.781c.58,0,1.051-.473,1.051-1.053l-.002-3.899,3.9-.002c.58,0,1.053-.472,1.053-1.052v-2.781c-.002-.58-.475-1.053-1.055-1.052h-3.9s-.001-3.897-.001-3.897c0-.581-.472-1.053-1.053-1.052h-2.78c-.58.001-1.051.473-1.051,1.054l.002,3.898-3.9.002c-.58,0-1.052.473-1.052,1.053v1.336C24.145,3.226,19.867-.002,14.84,0,8.467.003,3.285,5.189,3.288,11.561c.003,6.371,5.19,11.554,11.562,11.552m-.575-17.907c2.904,0,5.309,2.172,5.674,4.978l-5.257-3.026-3.744,6.506,4.831,2.781c-.486.131-.991.199-1.499.199-3.154,0-5.72-2.562-5.721-5.717-.002-3.152,2.562-5.72,5.716-5.721"/><path class="cls-3" d="m5.769,26.392c.032-.047.929-1.431,1.079-1.669.305-.486-.971-.532-1.244-.531h-1.916c-.267,0-1.587.046-1.851.453-.127.195-.993,1.538-1.089,1.686-.071.108-.016.252.206.337.236.092.623.162,1.066.161h1.865c.16,0,.512-.011.677-.034.148.033.538.135.721.184.769.207.982.023,1.01-.045.027-.071-.045-.13-.087-.146-.039-.016-.505-.201-.622-.247.093-.05.161-.11.185-.149m-.116-1.637l-.929,1.43c-.226-.071-.682-.211-.801-.242-.2-.055-.548-.169-.626-.052-.033.048-.047.113.185.293.077.057.289.204.372.256h-1.403c-.046,0-.606,0-.491-.176l.942-1.455c.133-.208.662-.232,1.03-.232h1.127c.266,0,.691.027.594.178"/><path class="cls-3" d="m41.619,24.959c-.088-.021-.332-.052-.421-.052-.242,0-.345.038-.4.067-.04.02-1.399.717-2.556,1.311l-.863-1.287c-.08-.113-.459-.091-.555-.081-.059.007-.263.027-.359.044-.19.039-.207.147-.143.225l1.062,1.539c-.366.187-.641.328-.737.377-.223.114-.495.137-.858.137-.437,0-.812-.051-1.105-.094l-.234.338c.313.079.965.157,1.454.157.829-.001,1.324-.156,1.499-.24.227-.111,4.062-2.057,4.334-2.193.045-.023.081-.062.081-.102,0-.09-.108-.126-.199-.146"/><path class="cls-3" d="m34.984,25.001c-.037-.048-.132-.081-.321-.081-.371,0-.429.021-.625.089-.064.022-.133.043-.212.057-.071.014-.142.015-.244-.002-.093-.014-.27-.049-.374-.069-.284-.055-.544-.087-.932-.087-.926,0-1.726.189-1.896.444-.039.059-.539.818-.585.891-.044.066-.09.142-.064.226.128.356,1.182.358,1.456.358.632,0,1.106-.092,1.471-.144.057-.008.11-.017.174-.017.062,0,.086,0,.124.026.01.009.074.053.093.066.074.053.205.056.397.056.368,0,.483-.052.54-.144l.99-1.533c.019-.033.053-.077.008-.136m-1.419.509l-.467.719c-.085.134-.643.199-.809.199h-.74c-.216,0-.397-.031-.528-.068-.042-.013-.098-.06-.055-.124.051-.077.424-.64.454-.691.092-.137.487-.233.987-.233h.534c.19,0,.443.013.585.07.046.017.073.075.039.128"/><path class="cls-2" d="m22.784,26.297c-.385.042-1.555.134-2.043.134h-.429c-.046,0-.8,0-.687-.175l.944-1.455c.133-.207.661-.231,1.031-.232h1.397c.394,0,.552-.114.552-.24,0-.125-.214-.146-.36-.146h-1.835c-.267,0-1.587.046-1.853.454-.125.194-.99,1.537-1.087,1.685-.07.109-.021.264.202.351.192.074.578.159,1.611.159.549,0,1.825-.059,2.266-.132l.291-.403Z"/><path class="cls-2" d="m16.094,26.677c-.048.075-.22.141-.54.141h-.226c-.22,0-.455-.063-.349-.229l1.464-2.262c.049-.076.221-.141.541-.141h.226c.219,0,.457.064.349.23l-1.465,2.261Z"/><path class="cls-3" d="m11.799,26.731c.04.033.123.089.27.089h.179c.319,0,.492-.066.539-.142l1.463-2.259c.107-.167-.128-.232-.348-.232h-.225c-.321,0-.492.066-.543.141l-1.103,1.702c-.073.113-.101.2-.198.254-.144.081-.387.153-1.02.153h-.708c-.831,0-.872-.054-.924-.084-.034-.025-.029-.065-.012-.094l1.196-1.839c.11-.167-.129-.231-.349-.231h-.225c-.32,0-.492.066-.541.141l-1.267,1.958c-.052.075-.362.549,1.559.548,1.044,0,1.388-.067,1.933-.146.212-.031.25-.015.324.041"/><path class="cls-3" d="m29.664,24.507c-.145-.345-1.184-.341-1.455-.341-.63,0-1.105.102-1.47.155-.058.007-.112.016-.174.016s-.086-.008-.123-.036c-.011-.007-.075-.052-.094-.066-.075-.052-.206-.055-.395-.055-.37,0-.485.051-.542.143l-1.464,2.261c-.109.166.127.231.35.231h.224c.32,0,.491-.066.542-.141l.528-.822h1.708c.903,0,1.723-.226,1.882-.465.039-.06.372-.562.422-.637.043-.065.107-.136.061-.243m-1.227.232c-.05.075-.302.453-.333.5-.02.031-.048.065-.094.085-.09.038-.35.126-.813.126h-1.348s.448-.684.448-.684c.102-.158.637-.199.81-.199h.82c.152,0,.331.013.453.047.044.011.099.059.057.125"/><path class="cls-3" d="m21.387,18.842l-1.413-.814,3.025-5.259,1.426.82h0s.946.545.946.545c.202-.827.312-1.692.312-2.583-.003-5.984-4.858-10.835-10.843-10.832-5.986.003-10.837,4.857-10.834,10.841.002,5.986,4.857,10.836,10.843,10.833,2.905,0,5.539-1.145,7.484-3.006l-.946-.545Zm-7.107-1.479c-3.556.002-6.439-2.879-6.441-6.434-.002-3.557,2.88-6.441,6.435-6.442,3.554-.002,6.439,2.88,6.44,6.436.001.175-.007.347-.022.519l-5.735-3.302-3.028,5.259,5.478,3.153c-.926.515-1.991.811-3.127.811"/><rect class="cls-2" x="20.689" y="15.736" width="6.068" height="1.898" transform="translate(-2.568 28.933) rotate(-60.098)"/><rect class="cls-2" x="23.648" y="17.799" width="6.069" height="1.178" transform="translate(-2.546 32.38) rotate(-60.153)"/><rect class="cls-2" x="26.515" y="19.841" width="6.069" height=".396" transform="translate(-2.544 35.683) rotate(-60.131)"/><path class="cls-3" d="m39.801,6.374c0-.185-.149-.334-.334-.334l-4.284.002c-.184,0-.334-.148-.334-.333l-.002-4.284c0-.184-.148-.333-.333-.333h-2.781c-.182.001-.331.151-.331.335v4.284c.002.184-.15.332-.333.332l-4.285.002c-.184,0-.333.15-.333.335v2.782c0,.183.151.332.335.332l4.285-.002c.183,0,.334.15.334.333l.002,4.285c0,.183.15.333.332.333h2.781c.185,0,.332-.151.332-.335l-.002-4.284c0-.183.151-.334.335-.334l4.284-.002c.185,0,.333-.149.333-.332v-2.782Z"/></g></svg>