<?xml version="1.0" encoding="UTF-8"?><svg id="_レイヤー_2" xmlns="http://www.w3.org/2000/svg" viewBox="0 0 44.577 28.103"><defs><style>.cls-1{fill:#8bcdee;}.cls-2{fill:#e6e6e6;}.cls-3{fill:#e8380d;}</style></defs><g id="_レイヤー_1-2"><rect class="cls-2" width="44.577" height="28.103"/><rect class="cls-1" x="1.283" y="1.283" width="42.013" height="25.537"/><path class="cls-3" d="m35.38,6.523c1.667,0,2.778,1.276,2.778,2.727v3.446c0,.237-.132.371-.367.371h-.56c-.235,0-.366-.134-.366-.371v-3.446c0-.759-.54-1.535-1.485-1.535-.94,0-1.48.776-1.48,1.535v3.446c0,.237-.135.371-.37.371h-.556c-.237,0-.371-.134-.371-.371v-3.446c0-1.451,1.112-2.727,2.777-2.727"/><path class="cls-3" d="m16.23,6.687h-.556c-.231,0-.368.133-.368.367v3.453c0,.76-.542,1.53-1.482,1.53-.946,0-1.485-.77-1.485-1.53v-3.011c0-.236-.129-.37-.368-.37h-.56c-.236,0-.373.134-.373.37v3.011c0,.76-.537,1.53-1.481,1.53s-1.481-.77-1.481-1.53v-3.453c0-.234-.135-.367-.37-.367h-.555c-.238,0-.372.133-.372.367v3.453c0,1.445,1.112,2.728,2.778,2.728.91,0,1.645-.393,2.132-.972.491.579,1.225.972,2.135.972,1.667,0,2.779-1.283,2.779-2.728v-3.453c0-.234-.138-.367-.373-.367"/><path class="cls-3" d="m24.005,12.696v-3.449c0-1.451-1.11-2.73-2.775-2.73s-2.78,1.279-2.78,2.73v3.449c0,.234.135.371.371.371h.557c.233,0,.369-.137.369-.371v-1.195c0-.234.136-.371.369-.371h2.223c.237,0,.369.137.369.371v1.195c0,.234.133.371.375.371h.555c.232,0,.367-.137.367-.371m-1.297-3.047c0,.236-.132.373-.369.373h-2.223c-.233,0-.369-.137-.369-.373v-.402c0-.759.538-1.534,1.483-1.534s1.478.775,1.478,1.534v.402Z"/><path class="cls-3" d="m31.027,10.508v-1.26c0-1.452-1.11-2.73-2.778-2.73s-2.779,1.278-2.779,2.73v1.26c0,1.445,1.112,2.727,2.779,2.727s2.778-1.282,2.778-2.727m-1.297,0c0,.76-.536,1.529-1.481,1.529s-1.482-.769-1.482-1.529v-1.26c0-.759.539-1.535,1.482-1.535s1.481.776,1.481,1.535v1.26Z"/><path class="cls-3" d="m22.411,20.706c-6.755,0-12.209-1.052-12.209-2.333,0-1.201,5.557-2.254,12.209-2.373,6.651.119,12.21,1.172,12.21,2.373,0,1.281-5.455,2.332-12.21,2.333m0-5.149c-9.368.118-14.389,1.589-14.389,3.547,0,1.933,6.439,3.519,14.389,3.519s14.389-1.587,14.389-3.52c0-1.958-5.019-3.428-14.389-3.546"/></g></svg>