<?xml version="1.0" encoding="UTF-8"?><svg id="_レイヤー_2" xmlns="http://www.w3.org/2000/svg" xmlns:xlink="http://www.w3.org/1999/xlink" viewBox="0 0 149.972 51.442"><defs><style>.cls-1{fill:#fff;}.cls-2{fill:#26499d;}.cls-3{clip-path:url(#clippath);}.cls-4{fill:none;}.cls-5{fill:#a0d8ef;}</style><clipPath id="clippath"><rect class="cls-4" width="149.972" height="51.442"/></clipPath></defs><g id="_レイヤー_1-2"><g class="cls-3"><path class="cls-5" d="m149.972,47.645c0,2.085-1.706,3.796-3.799,3.796H3.794C1.706,51.441,0,49.73,0,47.645V3.797C0,1.71,1.706,0,3.794,0h142.379c2.093,0,3.799,1.711,3.799,3.798v43.848Z"/><polygon class="cls-2" points="45.225 39.215 45.225 42.035 42.021 42.035 42.021 39.215 40.633 39.215 40.633 46.526 42.021 46.526 42.021 43.393 45.225 43.393 45.225 46.526 46.614 46.526 46.614 39.215 46.269 39.215 45.225 39.215"/><path class="cls-2" d="m51.985,39.143l-.861.009-3.05,7.06,1.284.512s.792-1.835.937-2.173h2.809c.146.335.95,2.177.95,2.177l1.282-.532-3.123-7.056-.228.003Zm.527,4.044h-1.629c.213-.495.517-1.205.81-1.887.296.681.604,1.391.819,1.887"/><path class="cls-2" d="m61.003,39.246s-1.413,2.01-1.838,2.615c-.424-.606-2.027-2.893-2.027-2.893l-1.154.783s2.368,3.349,2.487,3.519v3.252h1.39v-3.252c.12-.17,2.487-3.518,2.487-3.518l-1.149-.785-.196.279Z"/><path class="cls-2" d="m66.92,39.143l-.866.01-3.05,7.059,1.285.512s.792-1.835.937-2.172h2.812c.147.335.951,2.176.951,2.176l1.277-.532-3.117-7.056-.229.003Zm-.296,2.158c.296.682.603,1.39.819,1.886h-1.626c.211-.493.515-1.202.807-1.886"/><path class="cls-2" d="m76.929,40.061l-.984-.965-.242.243s-1.761,1.768-2.538,2.548v-2.662h-1.389v7.295h1.389v-2.682c.102-.102.281-.28.494-.494.4.499,2.654,3.315,2.654,3.315l1.101-.817s-2.441-3.062-2.773-3.479c.355-.356,2.288-2.302,2.288-2.302"/><path class="cls-2" d="m82.219,39.143l-.864.009-3.05,7.06,1.284.512s.793-1.835.939-2.173h2.811c.146.337.947,2.176.947,2.176l1.286-.53-3.125-7.057-.228.003Zm.526,4.044h-1.626c.212-.495.516-1.204.809-1.886.296.681.602,1.39.817,1.886"/><path class="cls-2" d="m92.235,40.061l-.99-.963-.241.241s-1.761,1.768-2.538,2.548v-2.662h-1.39v7.295h1.39v-2.682c.102-.102.281-.28.494-.494.4.499,2.654,3.315,2.654,3.315l1.102-.817s-2.442-3.062-2.775-3.479c.355-.356,2.294-2.302,2.294-2.302"/><polygon class="cls-2" points="95.785 43.445 98.665 43.445 98.665 42.083 95.785 42.083 95.785 40.57 99.058 40.57 99.058 39.2 98.712 39.2 94.399 39.2 94.399 46.508 99.113 46.508 99.113 45.139 95.785 45.139 95.785 43.445"/><path class="cls-2" d="m106.199,39.215h-1.052v4.556c-.823-1.402-2.672-4.548-2.672-4.548h-1.437v7.303h1.396v-4.64c.832,1.413,2.736,4.652,2.736,4.652h1.374v-7.323h-.345Z"/><path class="cls-1" d="m23.861,10.806c.365.233.331.564-.033.729-.331.165-.959.364-1.555.529,0-.827,0-1.555.033-2.316,0,0,.166.165.431.331.396.265.794.462,1.124.727m4.368,16.941c-1.06-1.423-3.277-2.747-5.625-3.674-.199-3.97-.298-7.244-.331-10.222,1.787-.331,4.102-.827,4.632-1.356.993-1.027.596-1.986-.694-2.085-.729-.066-1.754.066-3.342-.562-.331-.133-.563-.165-.563-.165,0-.53,0-1.06.034-1.589.033-.463.463-.727.463-1.324.033-1.355-2.68-2.679-4.467-2.283-.794.2-.76.497,0,.796.96.396,1.621.925,1.787,2.778.099,1.489.198,2.944.264,4.368-2.845.396-6.781.263-7.807-.828-.463-.463-.629-.364-.398.266.696,1.851,4.136,2.744,8.272,2.249.099,3.01.132,6.087.231,9.395-4.235-.993-7.443-.363-8.204,2.448-1.523,5.658,10.454,6.484,10.256.86,0-.23-.034-.628-.034-.827,1.257.761,2.449,1.788,3.508,3.276,1.025,1.421,3.472.397,2.018-1.521m-18.826-9.893c.199-.728-.132-.794-.429-.1-.927,1.92-2.151,5.029-2.912,7.28-.198.628-.496.396-.661-.233-.629-2.514-.695-7.741,2.217-13.564.463-.993,1.157-1.82,1.256-2.515.199-1.29-.959-2.977-2.283-3.672-.363-.23-.562-.23-.495.233.33,1.687.098,2.446-.464,4.598-1.985,7.742-2.845,12.836-.827,18.461,1.158,3.241,3.342,2.713,3.011.033-.298-2.118.033-4.963,1.587-10.521m11.282,8.072c.099,4.599-7.94,3.01-7.345.133.464-2.283,4.103-2.482,7.345-.959v.826Z"/><path class="cls-1" d="m47.286,10.842c-2.052.727-4.037,1.62-5.757,2.48-.662-1.191-1.621-2.813-2.118-3.771-.826-1.489-.065-2.317,1.423-2.25,1.488.066,3.705.066,6.452,3.541m9.594,10.221c5.425-2.05,5.756-10.421-1.026-11.611-1.39-.232-3.01-.133-4.697.231-.133-1.72-1.258-3.837-4.037-4.168-.695-.1-.794.197-.165.496,1.191.562,1.885,1.885,1.918,2.91,0,.497-.363.861-1.025.432-2.217-1.556-4.533-2.681-7.577-2.945-3.572-.298-4.466,2.381-2.977,3.869.927.928,2.249,2.383,3.11,3.607-1.522.795-2.811,1.523-3.738,2.019-1.257.694-2.945,1.124-3.971.495-.529-.364-.859-.528-.76.132.297,1.986,2.547,3.343,3.606,3.045,1.058-.298.992-1.025,2.845-2.349.96-.661,2.051-1.422,2.846-1.886,2.315,4.433,3.704,10.189,3.704,15.219,0,3.243,3.077,2.382,2.912-.099-.331-5.128-3.11-11.414-5.558-15.815,1.952-1.191,3.804-2.183,5.657-2.977,1.092,1.125,2.813.695,3.144-1.026,1.918-.43,3.373-.529,4.697-.264,4.301.827,4.4,6.749.231,8.469-2.514,1.026-6.98,1.124-9.693-2.515-.562-.761-.827-.496-.463.364,1.852,4.367,7.112,5.857,11.017,4.367"/><path class="cls-1" d="m90.857,20.831c-.628-.496-.926-.462-3.54-.727-.992-.1-.992-.365-.067-.529,1.158-.2,2.184-.464,3.01-.827.695-.233.895-.696.828-1.456-.164-2.183-1.323-3.772-3.97-5.327-.562-.33-.464-.463.199-.33,5.459,1.058,7.774,6.053,5.822,9.164-.827,1.356-1.62.562-2.282.032m-12.54,8.271c-1.82,1.854-3.705,1.126-3.805.232-.164-1.191-.76-1.952-2.48-3.541-.562-.528-.397-.627.198-.363,1.191.53,1.985.894,3.275,1.291.827.263,1.29.132,1.654-.331,1.423-1.688,2.515-4.698,3.043-9.132.334-3.109-1.356-4.268-4.366-3.506-.826.199-1.455.397-2.051.595-1.291,4.202-2.647,9.132-4.334,12.836-.795,1.621-1.72,3.045-2.646,2.151-.696-.728-.696-1.886.197-3.242,2.283-3.408,3.905-7.178,4.963-11.083-.264.1-.528.232-.827.331-3.011,1.157-2.482,1.555-3.308,1.853-.927.33-2.25-1.39-2.482-3.11-.065-.397.166-.464.464-.266.96.597,1.421.663,3.143.332,1.125-.231,2.25-.53,3.442-.793.329-1.457.594-2.946.76-4.468.131-1.025.231-2.183-1.258-3.01-.629-.297-.662-.53.066-.629,2.647-.198,4.17,1.323,4.234,2.448.033.761-.561,1.059-.991,2.317-.331.86-.663,1.853-.993,2.943.495-.066,1.027-.164,1.589-.264,4.333-.695,6.219,1.323,6.219,4.764,0,3.639-1.025,8.901-3.706,11.645"/><path class="cls-1" d="m107.108,27.85c.486,1.823-.976,2.592-2.028.925-2.028-3.337-1.565-8.779-.282-14.065.282-1.205.564-2.591.385-3.439-.129-.462.024-.487.487-.179.924.641,1.873,1.899,1.515,3.002-.181.54-.564.873-.949,1.874-2.183,5.441-1.489,7.596-1.182,9.136.129.436.412.488.539.078.539-1.822,1.028-3.336,1.797-5.364.178-.489.436-.489.333.025-.873,4.363-1.001,6.7-.615,8.007m11.702-10.676c.051,3.106.154,5.902-.614,8.162-.976,2.822-3.107,4.567-7.341,5.774-.514.128-.644-.052-.155-.308,3.619-1.566,5.082-3.337,5.905-5.98.512-1.643.537-4.697.435-7.469-2.516.257-6.57.437-7.365-1.437-.208-.462-.078-.437.281-.231,1.258.72,4.311.539,7.032.181-.051-.847-.078-1.67-.103-2.337-.154-1.41-.333-1.976-1.462-2.514-.488-.231-.385-.463.103-.514,1.487-.154,3.515.564,3.645,1.618.076.641-.361.614-.386,1.821-.025.565,0,1.129,0,1.67.976-.156,1.796-.335,2.412-.464,1.591-.179,2.233,1.591.386,1.72-.667.077-1.694.179-2.773.308"/><path class="cls-1" d="m137.572,29.903c-4.21-1.36-.977-7.288-3.235-8.392-1.975-.975-6.389,1.514-7.519,6.519-.128.59-.334,2.285-1.54,2.258-.95-.025-1.154-1.052-.95-2.232.256-1.514,2.053-3.824,7.88-14.167.821-1.411.643-2.721.024-3.645-.307-.462-.127-.589.464-.435,1.41.384,2.591,1.976,2.617,2.848.026.95-.617,1.437-1.462,2.283-2.131,2.131-3.98,4.903-5.287,7.648-.207.462-.027.591.282.232,1.232-1.411,4.005-3.259,6.211-2.284,3.696,1.643.487,6.853,3.106,7.751,2.155.745,5.902-.744,7.57-5.852.205-.642.512-.487.436.153-.616,5.186-4.492,8.65-8.597,7.315"/></g></g></svg>