<?xml version="1.0" encoding="UTF-8"?><svg id="_レイヤー_2" xmlns="http://www.w3.org/2000/svg" xmlns:xlink="http://www.w3.org/1999/xlink" viewBox="0 0 128.083 78.677"><defs><style>.cls-1{fill:#fff;}.cls-2{fill:#dcdddd;}.cls-3{fill:#31a7da;}.cls-4{clip-path:url(#clippath);}.cls-5{fill:none;}.cls-6{fill:#a3d1d0;}.cls-7{fill:#f8f5b0;}</style><clipPath id="clippath"><rect class="cls-5" width="128.083" height="78.676"/></clipPath></defs><g id="_レイヤー_1-2"><g class="cls-4"><path class="cls-2" d="m123.612,0H4.474C1.979,0,0,1.972,0,4.399v69.88c0,2.43,1.979,4.398,4.474,4.398h119.138c2.482,0,4.47-1.968,4.47-4.398V4.399C128.082,1.972,126.094,0,123.612,0"/><path class="cls-6" d="m61.614,32.617c-1.542,0-2.937.648-4.141,1.952-1.211,1.307-1.855,2.949-1.855,4.904,0,1.972.644,3.614,1.855,4.901,1.204,1.316,2.599,1.952,4.141,1.952,1.557,0,2.941-.636,4.156-1.935,1.236-1.288,1.823-2.913,1.823-4.918,0-1.967-.587-3.609-1.823-4.924-1.215-1.284-2.599-1.932-4.156-1.932"/><path class="cls-6" d="m48.694,44.452c-.149,0-.314.032-.43.085-.081.052-.27.177-.677.543-.623.636-1.166,1.042-1.738,1.247-.937.346-2.043.523-3.339.523-2.21,0-3.931-.571-5.211-1.71-1.263-1.154-1.903-2.607-1.903-4.297v-2.133c0-1.408.338-2.635,1.046-3.669.692-1.055,1.501-1.778,2.414-2.258.873-.459,1.9-.679,2.978-.679.864,0,1.722.156,2.555.454.902.326,1.585.748,2.08,1.283.286.343.495.773.584,1.292.117.745.329,1.018.43,1.11.165.117.411.226.7.226.322,0,.576-.109.801-.33.141-.165.298-.519.298-1.324v-2.776c0-.805-.157-1.151-.298-1.304-.225-.233-.479-.314-.801-.314-.189,0-.37.049-.519.125-.181.089-.354.233-.503.479l-.281.398-.447-.285c-.669-.403-1.392-.704-2.157-.93-.793-.217-1.682-.313-2.567-.313-1.493,0-2.942.394-4.27,1.13-1.343.756-2.389,1.807-3.117,3.187-.789,1.384-1.164,2.853-1.164,4.47v2.217c0,1.517.407,2.905,1.239,4.181.85,1.3,1.888,2.241,3.067,2.844,1.501.749,3.199,1.151,5.061,1.151,1.603,0,3.079-.309,4.423-.841.946-.37,1.714-.913,2.334-1.584.354-.407.551-.769.551-1.071,0-.31-.141-.568-.354-.801-.25-.234-.495-.326-.785-.326"/><path class="cls-6" d="m28.568,32.572c.889,0,1.256-.169,1.4-.31.242-.193.338-.442.338-.784s-.096-.6-.338-.773c-.144-.161-.511-.321-1.4-.321h-9.974c-.87,0-1.232.16-1.422.321-.228.173-.328.431-.328.773s.1.591.328.784c.19.141.552.31,1.422.31h3.866v13.789h-3.866c-.87,0-1.232.149-1.422.302-.228.197-.328.451-.328.793,0,.326.1.575.328.776.19.165.552.302,1.422.302h9.974c.889,0,1.256-.137,1.4-.302.242-.201.338-.45.338-.776,0-.342-.096-.596-.338-.781-.144-.165-.511-.314-1.4-.314h-3.875v-13.789h3.875Z"/><path class="cls-6" d="m103.117,34.534c-.552,0-1.086.599-1.36,1.469v.04c.165-.149.378-.237.559-.237.652,0,1.163.772,1.163,1.71,0,.949-.511,1.73-1.163,1.73-.181,0-.394-.105-.559-.25v.052c.298.866.808,1.469,1.36,1.469.857,0,1.617-1.404,1.617-3.001,0-1.582-.76-2.982-1.617-2.982"/><path class="cls-6" d="m108.862,34.534c-.572,0-1.083.599-1.36,1.492v.049c.157-.157.37-.269.583-.269.636,0,1.139.772,1.139,1.71,0,.965-.503,1.73-1.139,1.73-.213,0-.426-.105-.583-.25v.052c.277.866.788,1.469,1.36,1.469.873,0,1.601-1.404,1.601-3.001,0-1.582-.728-2.982-1.601-2.982"/><path class="cls-7" d="m28.568,45.314c.974,0,1.682.181,2.104.584.487.382.653.901.653,1.553,0,.616-.166,1.162-.653,1.557-.422.383-1.13.58-2.104.58h-9.974c-.998,0-1.671-.197-2.137-.58-.439-.395-.684-.941-.684-1.557,0-.652.245-1.171.684-1.553.466-.403,1.139-.584,2.137-.584h2.799v-11.717h-2.799c-.998,0-1.671-.177-2.137-.579-.439-.362-.684-.914-.684-1.538,0-.651.245-1.162.684-1.549.466-.41,1.139-.595,2.137-.595h9.974c.974,0,1.682.185,2.104.595.487.387.653.898.653,1.549,0,.624-.186,1.176-.653,1.538-.422.402-1.13.579-2.104.579h-2.805v11.717h2.805Z"/><path class="cls-7" d="m50.086,47.322c-.733.797-1.65,1.4-2.76,1.871-1.428.592-3.046.893-4.8.893-2.045,0-3.907-.43-5.524-1.243-1.361-.672-2.524-1.731-3.482-3.211-.949-1.408-1.432-3.03-1.432-4.736v-2.209c0-1.766.442-3.424,1.283-4.973.842-1.541,2.028-2.736,3.549-3.597,1.489-.829,3.074-1.248,4.789-1.248.99,0,1.955.097,2.82.342.765.201,1.444.503,2.121.861.153-.141.309-.342.491-.418.321-.205.672-.278,1.042-.278.651,0,1.17.213,1.581.66.394.435.588,1.103.588,2v2.78c0,.929-.194,1.569-.588,2.028-.411.439-.93.668-1.581.668-.58,0-1.074-.161-1.428-.519-.331-.334-.585-.853-.757-1.653-.044-.371-.149-.637-.322-.805-.378-.399-.909-.729-1.658-.994-.732-.262-1.444-.402-2.185-.402-.901,0-1.75.192-2.499.575-.74.386-1.4.989-2.003,1.903-.567.849-.833,1.899-.833,3.094v2.129c0,1.416.504,2.603,1.542,3.537,1.029.945,2.538,1.44,4.47,1.44,1.154,0,2.144-.169,2.925-.443.414-.152.909-.519,1.412-1.018.378-.398.677-.611.93-.748.249-.137.588-.202.917-.202.591,0,1.078.239,1.525.633.434.446.652.95.652,1.537,0,.547-.274,1.158-.785,1.746"/><path class="cls-1" d="m68.122,46.697c-1.879,1.919-4.04,2.893-6.506,2.893-2.217,0-4.213-.825-5.996-2.418-2.2-1.956-3.311-4.527-3.311-7.698,0-3.13,1.111-5.685,3.311-7.693,1.783-1.605,3.779-2.402,5.996-2.402,2.466,0,4.627.958,6.506,2.881,1.871,1.928,2.804,4.354,2.804,7.214,0,2.881-.933,5.304-2.804,7.223"/><path class="cls-1" d="m90.597,46.98c-.644.737-1.508,1.324-2.531,1.746-1.404.548-2.929.862-4.599.862-1.988,0-3.722-.407-5.319-1.191-1.256-.661-2.35-1.663-3.215-3.022-.902-1.372-1.38-2.853-1.38-4.475v-2.217c0-1.69.399-3.279,1.203-4.731.824-1.457,1.931-2.588,3.352-3.365,1.408-.816,2.949-1.211,4.53-1.211.949,0,1.867.113,2.668.338.865.222,1.63.576,2.358.994.213-.269.41-.466.672-.62.242-.128.479-.193.784-.193.48,0,.874.161,1.179.488.298.325.463.888.463,1.657v2.776c0,.781-.165,1.337-.463,1.662-.294.338-.699.515-1.179.515-.45,0-.784-.124-1.054-.382-.265-.249-.462-.692-.619-1.372-.065-.434-.206-.789-.443-1.026-.439-.495-1.058-.877-1.867-1.155-.781-.298-1.574-.438-2.358-.438-1.014,0-1.895.213-2.728.643-.825.411-1.589,1.099-2.217,2.072-.652.93-.942,2.092-.942,3.376v2.133c0,1.549.571,2.861,1.711,3.923,1.179,1.038,2.784,1.561,4.828,1.561,1.24,0,2.245-.157,3.134-.487.479-.209,1.039-.551,1.59-1.122.338-.342.604-.544.784-.64.206-.12.431-.157.661-.157.454,0,.864.173,1.162.503.354.294.512.704.512,1.155,0,.415-.223.889-.677,1.4"/><path class="cls-1" d="m114.159,48.625c-.33.286-.91.45-1.767.45h-4.346c-.82,0-1.391-.164-1.762-.45-.297-.326-.503-.672-.503-1.175,0-.487.206-.881.503-1.171.371-.309.942-.439,1.762-.439h.801l-.841-2.003h-8.047l-.824,2.003h.824c.809,0,1.412.13,1.742.439.33.29.511.684.511,1.171,0,.503-.181.849-.511,1.175-.33.286-.933.45-1.742.45h-4.354c-.841,0-1.432-.164-1.77-.45-.346-.326-.511-.672-.511-1.175,0-.487.165-.881.511-1.171.338-.309.929-.439,1.77-.439l5.232-12.751h-2.174c-.841,0-1.416-.14-1.762-.434-.314-.294-.495-.7-.495-1.175,0-.495.181-.893.495-1.175.346-.313.921-.455,1.762-.455h7.062l1.819,4.363c.383-.359.836-.552,1.319-.552,1.405,0,2.515,1.698,2.515,3.854,0,1.385-.418,2.539-1.11,3.223l2.124,5.102c.857,0,1.344.085,1.578.282.487.387.716.841.716,1.328,0,.503-.197.849-.527,1.175"/><path class="cls-3" d="m61.614,32.617c-1.542,0-2.937.648-4.141,1.952-1.211,1.307-1.855,2.949-1.855,4.904,0,1.972.644,3.614,1.855,4.901,1.204,1.316,2.599,1.952,4.141,1.952,1.557,0,2.941-.636,4.156-1.935,1.236-1.288,1.823-2.913,1.823-4.918,0-1.967-.587-3.609-1.823-4.924-1.215-1.284-2.599-1.932-4.156-1.932"/><path class="cls-3" d="m48.694,44.452c-.149,0-.314.032-.43.085-.081.052-.27.177-.677.543-.623.636-1.166,1.042-1.738,1.247-.937.346-2.043.523-3.339.523-2.21,0-3.931-.571-5.211-1.71-1.263-1.154-1.903-2.607-1.903-4.297v-2.133c0-1.408.338-2.635,1.046-3.669.692-1.055,1.501-1.778,2.414-2.258.873-.459,1.9-.679,2.978-.679.864,0,1.722.156,2.555.454.902.326,1.585.748,2.08,1.283.286.343.495.773.584,1.292.117.745.329,1.018.43,1.11.165.117.411.226.7.226.322,0,.576-.109.801-.33.141-.165.298-.519.298-1.324v-2.776c0-.805-.157-1.151-.298-1.304-.225-.233-.479-.314-.801-.314-.189,0-.37.049-.519.125-.181.089-.354.233-.503.479l-.281.398-.447-.285c-.669-.403-1.392-.704-2.157-.93-.793-.217-1.682-.313-2.567-.313-1.493,0-2.942.394-4.27,1.13-1.343.756-2.389,1.807-3.117,3.187-.789,1.384-1.164,2.853-1.164,4.47v2.217c0,1.517.407,2.905,1.239,4.181.85,1.3,1.888,2.241,3.067,2.844,1.501.749,3.199,1.151,5.061,1.151,1.603,0,3.079-.309,4.423-.841.946-.37,1.714-.913,2.334-1.584.354-.407.551-.769.551-1.071,0-.31-.141-.568-.354-.801-.25-.234-.495-.326-.785-.326"/><path class="cls-3" d="m28.568,32.572c.889,0,1.256-.169,1.4-.31.242-.193.338-.442.338-.784s-.096-.6-.338-.773c-.144-.161-.511-.321-1.4-.321h-9.974c-.87,0-1.232.16-1.422.321-.228.173-.328.431-.328.773s.1.591.328.784c.19.141.552.31,1.422.31h3.866v13.789h-3.866c-.87,0-1.232.149-1.422.302-.228.197-.328.451-.328.793,0,.326.1.575.328.776.19.165.552.302,1.422.302h9.974c.889,0,1.256-.137,1.4-.302.242-.201.338-.45.338-.776,0-.342-.096-.596-.338-.781-.144-.165-.511-.314-1.4-.314h-3.875v-13.789h3.875Z"/><path class="cls-3" d="m103.117,34.534c-.552,0-1.086.599-1.36,1.469v.04c.165-.149.378-.237.559-.237.652,0,1.163.772,1.163,1.71,0,.949-.511,1.73-1.163,1.73-.181,0-.394-.105-.559-.25v.052c.298.866.808,1.469,1.36,1.469.857,0,1.617-1.404,1.617-3.001,0-1.582-.76-2.982-1.617-2.982"/><path class="cls-3" d="m108.862,34.534c-.572,0-1.083.599-1.36,1.492v.049c.157-.157.37-.269.583-.269.636,0,1.139.772,1.139,1.71,0,.965-.503,1.73-1.139,1.73-.213,0-.426-.105-.583-.25v.052c.277.866.788,1.469,1.36,1.469.873,0,1.601-1.404,1.601-3.001,0-1.582-.728-2.982-1.601-2.982"/><path class="cls-3" d="m28.568,45.313c.973,0,1.682.182,2.109.584.486.382.651.901.651,1.553,0,.616-.165,1.167-.651,1.558-.427.381-1.136.579-2.109.579h-9.975c-.994,0-1.67-.198-2.136-.579-.439-.391-.685-.942-.685-1.558,0-.652.246-1.171.685-1.553.466-.402,1.142-.584,2.136-.584h2.8v-11.716h-2.8c-.994,0-1.67-.173-2.136-.576-.439-.366-.685-.917-.685-1.541,0-.652.246-1.163.685-1.549.466-.41,1.142-.595,2.136-.595h9.975c.973,0,1.682.185,2.109.595.486.386.651.897.651,1.549,0,.624-.189,1.175-.651,1.541-.427.403-1.136.576-2.109.576h-2.805v11.716h2.805Zm21.518,2.009c-.732.796-1.649,1.4-2.76,1.871-1.429.595-3.05.893-4.8.893-2.044,0-3.907-.431-5.525-1.243-1.36-.673-2.523-1.731-3.48-3.212-.946-1.408-1.432-3.029-1.432-4.731v-2.217c0-1.763.434-3.42,1.279-4.97.841-1.537,2.028-2.736,3.553-3.597,1.485-.829,3.074-1.247,4.788-1.247.99,0,1.956.096,2.821.342.759.201,1.444.503,2.12.861.149-.141.306-.342.487-.419.322-.205.676-.277,1.046-.277.652,0,1.171.213,1.582.66.39.434.586,1.098.586,2v2.78c0,.93-.196,1.569-.586,2.024-.411.443-.93.667-1.582.667-.579,0-1.078-.161-1.428-.514-.33-.334-.584-.853-.756-1.658-.049-.366-.15-.632-.322-.801-.379-.398-.913-.728-1.659-.993-.732-.262-1.444-.403-2.184-.403-.905,0-1.754.197-2.499.575-.741.387-1.4.99-2.004,1.904-.567.848-.833,1.899-.833,3.098v2.124c0,1.417.503,2.604,1.541,3.537,1.022.946,2.531,1.441,4.471,1.441,1.155,0,2.144-.169,2.921-.443.418-.157.913-.519,1.416-1.018.378-.398.676-.608.929-.748.251-.141.588-.197.918-.197.592,0,1.079.233,1.525.627.431.447.652.953.652,1.541,0,.544-.273,1.155-.785,1.743m18.035-.628c-1.879,1.923-4.041,2.893-6.507,2.893-2.217,0-4.213-.821-5.995-2.415-2.201-1.955-3.311-4.526-3.311-7.701,0-3.126,1.11-5.685,3.311-7.689,1.782-1.605,3.778-2.406,5.995-2.406,2.466,0,4.628.962,6.507,2.885,1.87,1.928,2.804,4.349,2.804,7.21,0,2.881-.934,5.303-2.804,7.223m22.476.285c-.643.737-1.509,1.32-2.531,1.743-1.396.555-2.929.865-4.595.865-1.991,0-3.726-.411-5.323-1.191-1.256-.66-2.35-1.662-3.215-3.022-.902-1.376-1.38-2.853-1.38-4.474v-2.217c0-1.69.398-3.279,1.211-4.732.817-1.457,1.923-2.591,3.348-3.368,1.404-.816,2.945-1.207,4.534-1.207.942,0,1.859.116,2.664.338.861.217,1.626.572,2.358.993.209-.269.406-.466.676-.623.233-.125.471-.189.776-.189.48,0,.874.161,1.18.487.297.325.463.885.463,1.654v2.78c0,.78-.166,1.336-.463,1.658-.29.337-.7.519-1.18.519-.446,0-.776-.121-1.054-.383-.266-.25-.463-.692-.619-1.372-.065-.438-.206-.788-.443-1.026-.439-.499-1.058-.877-1.867-1.154-.781-.302-1.573-.443-2.357-.443-1.015,0-1.896.217-2.729.648-.825.407-1.589,1.102-2.217,2.072-.652.93-.942,2.093-.942,3.38v2.124c0,1.553.572,2.865,1.715,3.928,1.178,1.038,2.78,1.561,4.823,1.561,1.24,0,2.246-.157,3.135-.487.479-.21,1.038-.551,1.59-1.123.337-.342.604-.543.785-.64.204-.12.43-.156.66-.156.453,0,.864.172,1.163.503.353.293.51.704.51,1.154,0,.41-.221.89-.676,1.4m23.559,1.646c-.326.286-.901.451-1.767.451h-4.336c-.826,0-1.401-.165-1.767-.451-.302-.326-.504-.672-.504-1.175,0-.486.202-.881.504-1.171.366-.309.941-.438,1.767-.438h.791l-.841-2.004h-8.047l-.825,2.004h.825c.809,0,1.417.129,1.746.438.33.29.511.685.511,1.171,0,.503-.181.849-.511,1.175-.329.286-.937.451-1.746.451h-4.354c-.841,0-1.428-.165-1.766-.451-.346-.326-.511-.672-.511-1.175,0-.486.165-.881.511-1.171.338-.309.925-.438,1.766-.438l5.236-12.751h-2.169c-.841,0-1.425-.145-1.771-.435-.314-.298-.498-.704-.498-1.175,0-.495.184-.897.498-1.175.346-.309.93-.454,1.771-.454h7.057l1.823,4.361c.378-.354.833-.551,1.312-.551,1.408,0,2.514,1.702,2.514,3.855,0,1.38-.414,2.543-1.106,3.223l2.12,5.102c.866,0,1.344.088,1.582.282.487.385.712.841.712,1.327,0,.503-.193.849-.527,1.175M122.465,2.244H38.039c-1.661,0-3.931.946-5.109,2.105L4.796,33.021c-1.155,1.191-2.109,3.453-2.109,5.098v35.256c0,1.622,1.368,2.945,3.034,2.945h94.984c1.681,0,3.943-.961,5.106-2.12l17.587-18.131c1.151-1.191,2.053-3.484,2.053-5.11V5.174c0-1.635-1.345-2.93-2.986-2.93"/></g></g></svg>