<?xml version="1.0" encoding="UTF-8"?><svg id="_レイヤー_2" xmlns="http://www.w3.org/2000/svg" xmlns:xlink="http://www.w3.org/1999/xlink" viewBox="0 0 121.048 121.044"><defs><style>.cls-1{fill:#fff;}.cls-2{fill:#abcd03;}.cls-3{clip-path:url(#clippath);}.cls-4{fill:none;}.cls-5{fill:#231815;}</style><clipPath id="clippath"><rect class="cls-4" x=".004" y=".005" width="121.044" height="121.039"/></clipPath></defs><g id="_レイヤー_1-2"><g class="cls-3"><path class="cls-2" d="m118.585,54.554c3.281,3.281,3.281,8.656,0,11.936l-52.09,52.09c-3.286,3.286-8.656,3.286-11.941,0L2.464,66.49c-3.286-3.28-3.286-8.655,0-11.936L54.555,2.464c3.285-3.285,8.655-3.285,11.941,0l52.09,52.09Z"/><path class="cls-1" d="m20.783,60.198c0,21.975,17.88,39.86,39.86,39.86s39.861-17.885,39.861-39.86-17.881-39.862-39.861-39.862S20.783,38.222,20.783,60.198"/><path class="cls-5" d="m60.644,100.814c-22.397,0-40.616-18.22-40.616-40.617S38.247,19.58,60.644,19.58s40.616,18.221,40.616,40.617-18.219,40.617-40.616,40.617m0-79.722c-21.562,0-39.104,17.543-39.104,39.105s17.542,39.105,39.104,39.105,39.104-17.542,39.104-39.105-17.542-39.105-39.104-39.105"/><path class="cls-2" d="m24.886,60.198c0-19.696,16.021-35.719,35.722-35.719s35.717,16.023,35.717,35.719-16.021,35.717-35.717,35.717-35.722-16.021-35.722-35.717"/><path class="cls-5" d="m60.608,96.671c-20.114,0-36.478-16.363-36.478-36.473S40.494,23.724,60.608,23.724s36.473,16.362,36.473,36.474-16.361,36.473-36.473,36.473m0-71.435c-19.281,0-34.966,15.684-34.966,34.962s15.685,34.961,34.966,34.961,34.961-15.683,34.961-34.961-15.683-34.962-34.961-34.962"/><path class="cls-5" d="m96.364,59.793v.403c0,1.65-.11,3.272-.328,4.86l4.105.554c.241-1.769.364-3.578.364-5.414,0-.145,0-.298-.004-.445l-4.137.042Zm-1.418-9.603c.45,1.541.796,3.129,1.033,4.75l4.096-.603c-.267-1.809-.656-3.583-1.158-5.308l-3.971,1.161Zm-3.964-8.859c.854,1.369,1.618,2.806,2.285,4.29l3.779-1.688c-.744-1.664-1.598-3.26-2.551-4.791l-3.513,2.189Zm-6.209-7.471c1.2,1.095,2.323,2.275,3.36,3.522l3.182-2.645c-1.157-1.394-2.409-2.706-3.746-3.93l-2.796,3.053Zm-7.983-5.536c1.45.739,2.849,1.573,4.182,2.493l2.356-3.399c-1.484-1.028-3.044-1.963-4.664-2.781l-1.874,3.687Zm-9.181-3.167c1.608.313,3.175.74,4.697,1.266l1.352-3.91c-1.703-.588-3.451-1.063-5.248-1.418l-.801,4.062Zm-9.699-.578c.901-.067,1.812-.104,2.735-.104.716,0,1.427.023,2.133.066l.242-4.134c-.786-.047-1.578-.071-2.375-.071-1.03,0-2.043.039-3.048.118l.313,4.125Zm-9.494,2.042c1.517-.549,3.075-1,4.674-1.346l-.869-4.047c-1.786.389-3.53.891-5.218,1.508l1.413,3.885Zm-8.58,4.538c1.312-.943,2.696-1.797,4.133-2.56l-1.934-3.66c-1.607.848-3.148,1.806-4.617,2.858l2.418,3.362Zm-7.053,6.683c1.018-1.266,2.118-2.464,3.298-3.579l-2.844-3.005c-1.318,1.242-2.545,2.578-3.684,3.992l3.23,2.592Zm-5.001,8.329c.639-1.504,1.383-2.949,2.218-4.338l-3.55-2.128c-.929,1.545-1.759,3.161-2.474,4.84l3.806,1.626Zm-2.557,9.366c.211-1.626.532-3.219.954-4.768l-3.992-1.091c-.473,1.73-.829,3.509-1.065,5.324l4.103.535Zm.053,9.717c-.228-1.588-.345-3.208-.355-4.858l-4.139.023c.01,1.836.149,3.645.394,5.414l4.1-.579Zm2.66,9.334c-.649-1.475-1.204-3.004-1.651-4.573l-3.981,1.131c.502,1.76,1.118,3.466,1.848,5.109l3.784-1.667Zm5.09,8.267c-1.028-1.252-1.976-2.574-2.829-3.962l-3.523,2.17c.955,1.545,2.006,3.025,3.152,4.417l3.2-2.625Zm7.126,6.603c-1.333-.934-2.598-1.958-3.788-3.058l-2.812,3.034c1.328,1.228,2.735,2.37,4.224,3.413l2.376-3.389Zm8.635,4.447c-1.54-.546-3.032-1.19-4.468-1.929l-1.892,3.681c1.602.826,3.266,1.546,4.991,2.153l1.369-3.905Zm9.519,1.933c-1.64-.104-3.251-.322-4.824-.641l-.826,4.058c1.758.356,3.555.599,5.384.718l.266-4.135Zm9.689-.677c-1.569.326-3.176.549-4.816.668l.29,4.129c1.824-.128,3.625-.379,5.375-.75l-.849-4.047Zm9.144-3.272c-1.431.745-2.925,1.398-4.46,1.95l1.394,3.895c1.721-.616,3.379-1.341,4.982-2.175l-1.916-3.67Zm7.922-5.621c-1.186,1.11-2.448,2.142-3.774,3.081l2.398,3.376c1.479-1.049,2.882-2.195,4.2-3.432l-2.824-3.025Zm6.124-7.537c-.844,1.389-1.782,2.721-2.807,3.978l3.209,2.611c1.143-1.403,2.191-2.886,3.134-4.437l-3.536-2.152Zm3.868-8.912c-.441,1.578-.986,3.111-1.627,4.588l3.792,1.65c.722-1.654,1.328-3.365,1.821-5.124l-3.986-1.114Z"/><polygon class="cls-2" points="19.138 41.962 31.331 46.906 31.87 71.385 16.986 76.859 19.138 41.962"/><polygon class="cls-2" points="103.18 40.8 90.723 45.976 89.965 71.237 105.242 77.006 103.18 40.8"/><path class="cls-5" d="m37.569,57.481c0,.147-.123.261-.259.261h-2.299c-.143,0-.267-.114-.267-.261v-1.663c0-.143.124-.262.267-.262h2.299c.136,0,.259.119.259.262v1.663m0,10.23c0,.146-.123.26-.259.26h-2.299c-.143,0-.267-.114-.267-.26v-8.817c0-.147.124-.261.267-.261h2.299c.136,0,.259.114.259.261v8.817Z"/><path class="cls-5" d="m90.147,67.711c0,.146-.119.26-.26.26h-6.551c-.142,0-.379-.008-.522-.028,0,0-2.243-.26-3.129-.858-.896-.583-1.341-1.327-1.341-2.233v-3.194c0-.147.028-.381.066-.522,0,0,.36-1.413,1.214-1.986.853-.573,1.93-.858,3.244-.858h7.019c.141,0,.26.117.26.26v1.295c0,.142-.119.261-.26.261h-6.153c-.142,0-.379.019-.522.033,0,0-.948.119-1.389.412-.43.294-.649.677-.649,1.133v2.593c0,.146.023.374.063.522,0,0,.156.582.586.876.441.299.996.445,1.673.445h6.391c.141,0,.26.115.26.262v1.327"/><path class="cls-1" d="m53.931,59.968c0,.142-.119.26-.26.26h-3.029c-.144,0-.262.125-.262.268v7.213c0,.152-.118.266-.26.266h-2.334c-.146,0-.259-.114-.259-.266v-7.213c0-.143-.119-.268-.266-.268h-3.147c-.148,0-.267-.118-.267-.26v-1.356c0-.145.119-.26.267-.26h3.147c.147,0,.266-.119.266-.266v-2.9c0-.151.113-.266.259-.266h2.334c.142,0,.26.115.26.266v2.9c0,.147.118.266.262.266h3.029c.141,0,.26.115.26.26v1.356"/><path class="cls-1" d="m72.36,65.173c0,.147-.033.379-.071.515,0,0-.294,1.095-1.02,1.57-.735.479-1.65.717-2.744.717h-5.139c-.137,0-.375-.015-.52-.03,0,0-1.693-.198-2.361-.664-.683-.46-1.024-1.076-1.024-1.833v-.56c0-.147.027-.379.071-.522,0,0,.261-1.109.933-1.569.669-.455,1.55-.683,2.641-.683h6.148c.141,0,.26-.123.26-.26v-.598c0-.141-.028-.379-.061-.515,0,0-.067-.281-.332-.46-.256-.2-.607-.294-1.034-.294h-7.736c-.145,0-.264-.115-.264-.261v-1.172c0-.146.119-.264.264-.264h8.082c.143,0,.375.013.522.033,0,0,1.692.204,2.371.674.677.468,1.014,1.079,1.014,1.829v4.347m-2.826.094v-1.314c0-.142-.119-.259-.26-.259h-5.305c-.146,0-.379.013-.526.032,0,0-.513.066-.811.266-.298.198-.445.445-.445.739v.257c0,.141.028.379.068.516,0,0,.074.294.353.483.285.195.656.289,1.097.289h4.137c.146,0,.379-.019.526-.036,0,0,.479-.068.753-.253.275-.198.413-.435.413-.72"/><path class="cls-1" d="m108.799,65.173c0,.147-.038.379-.066.515,0,0-.304,1.095-1.03,1.57-.733.479-1.644.717-2.738.717h-5.14c-.142,0-.374-.015-.519-.03,0,0-1.693-.198-2.367-.664-.677-.46-1.018-1.076-1.018-1.833v-.56c0-.147.027-.379.066-.522,0,0,.264-1.109.934-1.569.673-.455,1.554-.683,2.64-.683h6.149c.141,0,.264-.123.264-.26v-.598c0-.141-.028-.379-.062-.515,0,0-.066-.281-.327-.46-.264-.2-.611-.294-1.044-.294h-7.735c-.146,0-.265-.115-.265-.261v-1.172c0-.146.119-.264.265-.264h8.082c.143,0,.38.013.522.033,0,0,1.697.204,2.37.674.683.468,1.019,1.079,1.019,1.829v4.347m-2.825.094v-1.314c0-.142-.123-.259-.264-.259h-5.301c-.147,0-.383.013-.522.032,0,0-.511.066-.815.266-.303.198-.445.445-.445.739v.257c0,.141.028.379.066.516,0,0,.076.294.355.483.285.195.65.289,1.095.289h4.134c.147,0,.388-.019.531-.036,0,0,.474-.068.748-.253.28-.198.418-.435.418-.72"/><path class="cls-1" d="m16.882,67.636c0,.147-.123.26-.264.26l-2.448-.008c-.145-.005-.264-.124-.264-.267v-15.67c0-.147.119-.261.264-.261h2.448c.141,0,.264.114.264.261v15.685"/><path class="cls-1" d="m19.201,58.678c-.104.105-.27.271-.374.375l-.631.635c-.104.099-.104.265,0,.37l8.286,8.286c.105.104.271.104.369,0l1.646-1.64c.104-.099.104-.265,0-.374l-6.277-6.272c-.104-.105-.104-.271,0-.37l6.119-6.119c.102-.104.102-.27,0-.374l-1.639-1.64c-.105-.1-.271-.1-.375,0l-7.124,7.123"/></g></g></svg>