<?xml version="1.0" encoding="UTF-8"?><svg id="_レイヤー_2" xmlns="http://www.w3.org/2000/svg" xmlns:xlink="http://www.w3.org/1999/xlink" viewBox="0 0 187.079 27.234"><defs><style>.cls-1{fill:#969797;}.cls-2{clip-path:url(#clippath);}.cls-3{fill:none;}.cls-4{fill:#231815;}</style><clipPath id="clippath"><rect class="cls-3" width="187.079" height="27.234"/></clipPath></defs><g id="_レイヤー_1-2"><g class="cls-2"><path class="cls-1" d="m176.457,13.614c0,1.655-1.34,2.997-2.993,2.997s-2.999-1.342-2.999-2.997,1.339-2.995,2.999-2.995,2.993,1.342,2.993,2.995"/><path class="cls-1" d="m115.46,13.614c0,1.655-1.34,2.997-2.993,2.997s-2.999-1.342-2.999-2.997,1.339-2.995,2.999-2.995,2.993,1.342,2.993,2.995"/><path class="cls-1" d="m53.371,13.614c0,1.655-1.34,2.997-2.993,2.997s-2.999-1.342-2.999-2.997,1.339-2.995,2.999-2.995,2.993,1.342,2.993,2.995"/><path class="cls-4" d="m33.224,13.613v13.345h-5.991v-13.345c0-4.211-3.413-7.623-7.627-7.623v20.968h-5.99V5.99c-4.211,0-7.623,3.412-7.623,7.623v13.345H0v-13.345C0,6.096,6.097,0,13.616,0h5.99C27.126,0,33.224,6.096,33.224,13.613m117.024,2.997c-1.163,2.72-3.864,4.628-7.011,4.628-4.214,0-7.627-3.415-7.627-7.625s3.413-7.623,7.627-7.623c3.147,0,5.846,1.907,7.011,4.628h6.27C155.155,4.54,149.726,0,143.237,0c-7.52,0-13.618,6.096-13.618,13.613s6.098,13.621,13.618,13.621c6.489,0,11.918-4.549,13.281-10.624h-6.27Zm-54.937-2.997h0C95.311,6.096,89.215,0,81.696,0s-13.613,6.096-13.613,13.613v13.345h5.989v-13.345c0-4.211,3.411-7.623,7.624-7.623s7.626,3.412,7.626,7.623v13.345h5.989v-13.345Zm85.776,0c0-4.211-3.415-7.623-7.628-7.623s-7.622,3.412-7.622,7.623,3.412,7.625,7.622,7.625,7.628-3.415,7.628-7.625m5.992,13.345h-5.991v-2.307h-.091c-.491.542-1.134.991-1.875,1.35-1.724.791-3.641,1.233-5.658,1.233-7.523,0-13.618-6.099-13.618-13.621S165.941,0,173.464,0s13.615,6.096,13.615,13.613v13.345Zm-66.99-13.345c0-4.211-3.414-7.623-7.628-7.623s-7.621,3.412-7.621,7.623,3.411,7.625,7.621,7.625,7.628-3.415,7.628-7.625m5.993,13.345h-5.991v-2.307h-.092c-.491.542-1.133.991-1.874,1.35-1.725.791-3.641,1.233-5.659,1.233-7.521,0-13.617-6.099-13.617-13.621S104.945,0,112.466,0s13.616,6.096,13.616,13.613v13.345ZM58,13.613c0-4.211-3.414-7.623-7.628-7.623s-7.621,3.412-7.621,7.623,3.411,7.625,7.621,7.625,7.628-3.415,7.628-7.625m5.993,13.345h-5.992v-2.307h-.091c-.491.542-1.134.991-1.874,1.35-1.725.791-3.642,1.233-5.659,1.233-7.522,0-13.617-6.099-13.617-13.621S42.855,0,50.377,0s13.616,6.096,13.616,13.613v13.345Z"/></g></g></svg>