<?xml version="1.0" encoding="UTF-8"?><svg id="_レイヤー_2" xmlns="http://www.w3.org/2000/svg" xmlns:xlink="http://www.w3.org/1999/xlink" viewBox="0 0 161.473 42.365"><defs><style>.cls-1{clip-path:url(#clippath);}.cls-2{fill:none;}.cls-3{fill:#00b9ef;}</style><clipPath id="clippath"><rect class="cls-2" width="161.473" height="42.364"/></clipPath></defs><g id="_レイヤー_1-2"><g class="cls-1"><path class="cls-3" d="m0,14.18c0-.766.174-1.225.515-1.377.344-.151.704-.23,1.091-.23h5.091c.305,0,.567.107.777.319.204.203.314.463.314.771v.17c0,.267.134.399.402.399.113,0,.207-.027.287-.084.076-.059.152-.125.228-.197.417-.346.996-.728,1.743-1.159.743-.428,2.267-.643,3.714-.643.884,0,1.758.145,2.636.432.88.284,1.66.76,2.352,1.432.679.664,1.243,1.545,1.688,2.63.438,1.089.655,2.432.655,4.035v19.605c0,.768-.171,1.225-.512,1.376-.344.156-.707.23-1.088.23h-4.579c-.768,0-1.231-.173-1.381-.517-.149-.341-.225-.707-.225-1.089v-17.939c0-.768-.241-1.406-.719-1.919-.475-.516-1.301-.77-2.136-.77-.728,0-1.545.155-1.919.48-.381.325-.665.708-.829,1.147-.174.44-.271.9-.29,1.373-.018.477-.027.884-.027,1.233v16.395c0,.768-.177,1.225-.518,1.376-.341.156-.704.23-1.085.23H1.606c-.765,0-1.228-.173-1.378-.517-.152-.341-.228-.707-.228-1.089V14.18Z"/><path class="cls-3" d="m38.284,40.283c0,.768-.174,1.225-.521,1.376-.341.156-.71.23-1.085.23h-4.583c-.761,0-1.221-.173-1.373-.517-.156-.341-.232-.707-.232-1.089V14.18c0-.766.177-1.224.518-1.377.344-.151.71-.23,1.087-.23h4.583c.375,0,.744.079,1.085.23.347.153.521.611.521,1.377v26.103Z"/><path class="cls-3" d="m47.278,14.18c0-.766.168-1.225.515-1.377.341-.151.704-.23,1.088-.23h5.091c.308,0,.564.107.777.319.21.203.316.463.316.771v.17c0,.267.114.399.346.399.109,0,.213-.027.307-.084.095-.059.183-.125.259-.197.424-.309,1.012-.685,1.774-1.131.767-.446,1.855-.671,3.262-.671,1.186,0,2.179.212,2.984.633.801.419,1.526.915,2.172,1.487.347.305.621.491.832.543.21.058.582-.123,1.115-.543.652-.494,1.429-.972,2.349-1.429.917-.459,2.194-.691,3.839-.691.874,0,1.749.145,2.627.432.877.284,1.664.761,2.349,1.432.692.664,1.255,1.545,1.691,2.63.436,1.089.658,2.432.658,4.035v19.605c0,.768-.167,1.225-.515,1.377-.341.155-.707.229-1.088.229h-4.579c-.384,0-.743-.074-1.091-.229-.341-.152-.512-.609-.512-1.377v-17.939c0-.768-.238-1.406-.719-1.919-.475-.516-1.137-.77-1.971-.77-.729,0-1.28.156-1.664.48-.377.324-.658.708-.832,1.147-.17.44-.261.9-.283,1.373-.022.477-.027.884-.027,1.233v16.395c0,.768-.174,1.225-.519,1.377-.341.155-.703.229-1.084.229h-4.583c-.764,0-1.222-.173-1.373-.517-.153-.341-.229-.707-.229-1.089v-17.939c0-.768-.235-1.406-.716-1.919-.472-.516-1.137-.77-1.975-.77-.725,0-1.279.156-1.661.48-.383.324-.657.708-.831,1.147-.174.44-.265.9-.284,1.373-.021.477-.028.884-.028,1.233v16.395c0,.768-.173,1.225-.52,1.377-.344.155-.701.229-1.091.229h-4.573c-.765,0-1.228-.173-1.374-.517-.152-.341-.229-.707-.229-1.089V14.18Z"/><path class="cls-3" d="m89.314,23.657c0-1.066.109-2.266.341-3.608.229-1.331.716-2.592,1.459-3.775.747-1.185,1.832-2.168,3.267-2.947,1.432-.785,3.363-1.178,5.811-1.178s4.378.393,5.806,1.178c1.433.779,2.523,1.762,3.267,2.947.747,1.183,1.228,2.444,1.459,3.775.229,1.342.345,2.542.345,3.608v7.2c0,1.107-.116,2.318-.345,3.636-.231,1.313-.716,2.565-1.462,3.745-.741,1.192-1.831,2.17-3.26,2.955-1.432.778-3.373,1.171-5.81,1.171s-4.379-.393-5.811-1.171c-1.435-.785-2.52-1.763-3.267-2.955-.743-1.18-1.23-2.432-1.459-3.745-.232-1.318-.341-2.529-.341-3.636v-7.2Zm7.785,8.497c0,.763.094,1.383.283,1.862.192.477.433.862.716,1.146.29.285.621.484,1.005.602.382.113.744.168,1.089.168.337,0,.706-.055,1.084-.168.384-.118.716-.317,1.005-.602.28-.284.524-.669.714-1.146.195-.479.289-1.099.289-1.862v-9.832c0-.766-.095-1.384-.289-1.863-.19-.473-.434-.853-.714-1.139-.289-.289-.621-.487-1.005-.604-.378-.112-.747-.172-1.084-.172-.345,0-.707.06-1.089.172-.384.117-.715.315-1.005.604-.283.286-.524.666-.716,1.139-.189.479-.283,1.097-.283,1.863v9.832Z"/><path class="cls-3" d="m124.993,30.217c0,.421.027.907.085,1.459.061.551.231,1.086.515,1.598.283.516.719.941,1.289,1.286.57.342,1.389.514,2.465.514.225,0,.53-.02.913-.057.385-.04.936-.115,1.661-.228.534-.077.927-.152,1.173-.229.247-.072.528-.114.832-.114.497,0,.79.14.887.432.094.284.147.522.147.714v4.591c0,.23-.031.466-.089.718-.058.251-.275.485-.658.715-.381.231-.997.413-1.835.549-.841.13-2.038.199-3.601.199-2.947,0-5.195-.421-6.764-1.259-1.563-.836-2.708-1.873-3.434-3.095-.725-1.22-1.134-2.497-1.228-3.834-.101-1.334-.143-2.498-.143-3.491v-7.314c0-1.296.109-2.61.341-3.945.229-1.338.737-2.541,1.52-3.612.781-1.063,1.936-1.945,3.462-2.637,1.529-.684,3.607-1.028,6.246-1.028,1.563,0,2.76.074,3.601.206.838.131,1.454.312,1.835.543.38.23.6.47.658.715.058.25.085.493.085.721v4.59c0,.193-.049.432-.143.721-.097.281-.39.422-.887.422-.46,0-.85-.025-1.176-.081-.323-.06-.646-.133-.975-.228-.32-.1-.676-.172-1.057-.229-.378-.059-.841-.088-1.371-.088-.997,0-1.776.152-2.349.457-.576.305-1.015.694-1.32,1.172-.305.473-.497.999-.572,1.57-.077.57-.113,1.123-.113,1.656v5.921Z"/><path class="cls-3" d="m161.473,39.885v.685c0,.233-.055.439-.171.633-.116.19-.286.35-.515.486-.231.134-.576.2-1.036.2h-4.804c-.497,0-.805-.066-.915-.202-.113-.137-.17-.275-.17-.426,0-.192-.009-.356-.031-.49-.015-.131-.164-.202-.429-.202-.156,0-.326.097-.515.291-.539.456-1.24.825-2.118,1.095-.881.269-1.737.41-2.577.41-1.034,0-2.018-.199-2.95-.605-.935-.396-1.767-1.007-2.489-1.831-.728-.82-1.302-1.857-1.722-3.118-.417-1.26-.627-1.905-.627-3.626,0-2.967,1.541-5.963,3.836-7.83,2.172-1.768,4.829-2.857,7.443-3.83l1.432-.524c.378-.151.573-.452.573-.912,0-.841-.402-1.405-1.203-1.69-.802-.286-1.625-.43-2.46-.43-.691,0-1.349.046-1.977.144-.633.095-1.267.237-1.916.425-.765.194-1.34.377-1.722.55-.378.17-.722.255-1.029.255-.342,0-.613-.105-.799-.314-.192-.21-.286-.448-.286-.715v-3.552c0-.228.067-.512.201-.857.128-.342.484-.678,1.057-1,.573-.328,1.42-.603,2.547-.831,1.131-.231,2.663-.341,4.61-.341,2.44,0,4.379.275,5.811.827,1.429.554,2.507,1.27,3.229,2.145.732.877,1.198,1.851,1.411,2.92.207,1.066.311,2.114.311,3.145v19.115Zm-7.785-11.769c0-.191-.085-.313-.259-.371-.173-.06-.353-.028-.542.085l-.972.63c-.957.607-1.423.984-2.212,1.78-.78.781-1.366,1.88-1.152,2.997.226,1.198,1.228,2.155,2.499,2.155.767,0,1.395-.21,1.892-.63.496-.418.746-.05.746-.585v-6.061Z"/><path class="cls-3" d="m38.037,3.67c0,2.011-1.648,3.662-3.668,3.662s-3.665-1.651-3.665-3.662S32.352,0,34.369,0s3.668,1.652,3.668,3.669"/></g></g></svg>