<?xml version="1.0" encoding="UTF-8"?><svg id="_レイヤー_2" xmlns="http://www.w3.org/2000/svg" xmlns:xlink="http://www.w3.org/1999/xlink" viewBox="0 0 143.085 85.728"><defs><style>.cls-1{fill:#fff;}.cls-2{clip-path:url(#clippath);}.cls-3{fill:none;}.cls-4{fill:#eb6ea5;}</style><clipPath id="clippath"><rect class="cls-3" x="0" width="143.084" height="85.728"/></clipPath></defs><g id="_レイヤー_1-2"><g class="cls-2"><path class="cls-4" d="m7.927,0h127.229c4.376,0,7.928,3.552,7.928,7.928v69.873c0,4.375-3.552,7.927-7.927,7.927H7.927c-4.375,0-7.927-3.552-7.927-7.927V7.927C0,3.552,3.552,0,7.927,0Z"/><path class="cls-1" d="m26.797,39.468c0,1.854-1.375,3.814-3.862,3.814s-3.866-1.96-3.866-3.814,1.376-3.808,3.866-3.808,3.862,1.959,3.862,3.808m-7.899,13.256v-4.416c0-.47.216-.58.638-.477.9.268,1.697.481,3.399.481,5.715,0,9.525-4.131,9.525-8.844s-3.81-8.838-9.525-8.838-9.53,4.133-9.53,8.838v13.256h5.493Z"/><path class="cls-1" d="m49.522,40.131c0,.36-.206.564-.566.564h-6.366c-.359,0-.564-.204-.564-.564v-.927c0-1.793,1.333-3.695,3.745-3.695s3.751,1.902,3.751,3.695v.927Zm-7.496,12.593v-6.842c0-.362.205-.564.564-.564h6.366c.36,0,.566.202.566.564v6.842h5.494v-13.571c0-4.518-3.698-8.523-9.245-8.523s-9.239,4.005-9.239,8.523v13.571h5.494Z"/><path class="cls-1" d="m76.941,34.562c-.132-.207-.272-.427-.685-.848-1.743-1.962-4.566-3.083-7.392-3.083-5.851,0-8.674,3.365-8.674,6.451,0,3.691,3.08,6.216,8.624,6.497,0,0,3.798-.094,3.798,2.337,0,1.357-1.075,2.806-3.748,2.806-1.917,0-3.716-1.13-4.826-2.252v.009s-.42-.495-.582-.833l-3.887,2.388c.082.229.465.778.49.814,1.627,2.116,4.592,4.313,8.805,4.313,5.855,0,9.245-3.18,9.245-7.245,0-4.535-4.263-6.545-9.191-6.73,0,0-3.388,0-3.388-2.104,0-.752.819-2.058,3.334-2.058,1.028,0,2.313.422,3.441,1.401.46.376.599.575.715.699l3.921-2.562Z"/><path class="cls-1" d="m124.39,44.586c0,1.796-1.333,3.696-3.749,3.696s-3.747-1.9-3.747-3.696v-5.382c0-1.793,1.33-3.695,3.747-3.695s3.749,1.902,3.749,3.695v5.382Zm5.492,0v-5.382c0-4.569-3.696-8.573-9.241-8.573s-9.242,4.004-9.242,8.573v5.382c0,4.57,3.693,8.575,9.242,8.575s9.241-4.005,9.241-8.575"/><path class="cls-1" d="m99.697,30.631c-2.015,0-4.018.694-4.885,1.923-.868-1.229-2.874-1.923-4.887-1.923-4.555,0-7.531,3.04-7.531,6.649v15.444h5.499v-15.444c0-1.115.956-1.836,2.087-1.836s2.081.721,2.081,1.836v9.669h5.501v-9.669c0-1.115.952-1.836,2.081-1.836s2.087.721,2.087,1.836v15.444h5.498v-15.444c0-3.609-3.036-6.649-7.531-6.649"/></g></g></svg>