<?xml version="1.0" encoding="UTF-8"?><svg id="_レイヤー_2" xmlns="http://www.w3.org/2000/svg" xmlns:xlink="http://www.w3.org/1999/xlink" viewBox="0 0 137.303 63.546"><defs><style>.cls-1{fill:#fff;}.cls-1,.cls-2,.cls-3,.cls-4{fill-rule:evenodd;}.cls-2{fill:#ef858c;}.cls-3,.cls-5{fill:#231815;}.cls-4{fill:#eb6d9a;}.cls-6{clip-path:url(#clippath);}.cls-7{fill:none;}</style><clipPath id="clippath"><rect class="cls-7" y="0" width="137.303" height="63.545"/></clipPath></defs><g id="_レイヤー_1-2"><g class="cls-6"><path class="cls-4" d="m67.67.003c5.079-.061,9.152.793,12.699,2.255,1.008.415,2.012.776,2.92,1.306,1.075.626,2.18,1.195,3.181,1.899.481.338,1.05.97,1.661,1.115.577.137,1.375-.613,1.709-.831,1.318-.857,2.773-1.624,4.273-2.279,2.015-.878,4.189-1.486,6.575-2.017.949-.211,1.895-.211,2.919-.38,1.25-.206,3.32-.287,4.629-.071,1.021.169,1.971.094,2.919.285,1.861.373,3.673.675,5.294,1.305,8.967,3.484,15.037,9.079,18.657,17.898.704,1.716,1.191,3.596,1.637,5.602.104.751.206,1.503.309,2.255.158.911.352,2.594.19,3.584v1.091c-.063.808-.127,1.615-.19,2.421-.363,2.022-.652,3.881-1.21,5.65-1.27,4.021-3.266,7.308-5.579,10.278-.784,1.008-1.735,2.072-2.729,2.872-.986.794-1.873,1.72-2.92,2.469-3.342,2.388-7.052,4.089-11.678,5.246-3.756.939-9.3.936-13.055,0-3.207-.8-6.102-1.786-8.617-3.276-.704-.435-1.408-.87-2.112-1.305-.235-.156-.546-.496-1.021-.38-.542.132-1.003.652-1.424.949-.933.578-1.867,1.155-2.801,1.733-2.479,1.451-5.363,2.396-8.498,3.18-.964.242-1.929.291-2.966.475-.923.164-1.922.051-2.944.214h-2.374c-1.397-.23-2.772-.169-4.059-.451-3.508-.77-6.696-1.675-9.399-3.252-1.18-.688-2.35-1.363-3.442-2.137-.334-.236-.801-.857-1.448-.711-.538.12-.994.607-1.425.878-.68.395-1.36.791-2.041,1.186-2.299,1.345-5.033,2.173-7.928,2.897-4.391,1.098-10.598.799-14.597-.404-9.272-2.789-14.76-7.706-19.203-15.31-1.33-2.275-2.15-4.977-2.873-7.833-1.515-5.987-.406-13.428,1.496-18.04C5.686,11.925,12.281,5.282,21.313,2.424c1.956-.619,3.998-.93,6.266-1.329.855-.151,1.72.003,2.635-.142h1.281l1.567.047c1.106.183,2.21.175,3.252.404,2.991.656,5.512,1.502,7.976,2.586,1.01.446,2.001,1.041,2.919,1.615.474.297.984.835,1.567.973.618.147,1.064-.442,1.376-.664,1.006-.715,2.075-1.36,3.158-1.994,2.735-1.605,5.922-2.606,9.47-3.395,1.069-.142,2.137-.285,3.205-.427.562-.032,1.123-.064,1.685-.095"/><path class="cls-3" d="m26.899,36.465v-6.016c0-.148.018-.309-.07-.361-.053-.027-.154-.018-.227-.018h-9.738c-.204,0-.602.028-.751-.032-.146-.061-.257-.199-.364-.305-.124-.125-.25-.251-.375-.377-.059-.062-.138-.123-.191-.197-.086-.126-.082-.315-.082-.535v-.702c0-.127-.015-.273.027-.368.046-.133.161-.217.246-.307.151-.149.3-.296.448-.447.086-.081.163-.186.282-.236.107-.047.294-.03.449-.03h5.917c.214,0,.547.054.59-.121.024-.076.006-.188.006-.278v-2.924c0-.106,0-.21-.062-.254-.057-.038-.168-.031-.255-.031h-11.108c-.043.031-.091.011-.128.062-.053.079-.026.458-.026.603v9.408c0,.171-.034.575.06.643.051.034.143.031.22.031h9.857c.14,0,.37-.024.5.003.029.003.062.007.098.007.157.042.244.152.342.254.144.145.295.293.44.438.12.117.234.209.275.399.005.063.006.131.006.196,0,.11.01,1.146-.017,1.235-.066.171-.264.321-.385.441-.123.12-.237.239-.356.362-.078.072-.145.158-.251.196-.088.033-.21.026-.323.026h-9.808c-.152,0-.509-.03-.598.032-.06.042-.06.149-.06.249v3.16c.009.053.02.11.06.14.054.041.156.029.247.029h14.787c.104,0,.215.012.274-.041.058-.041.044-.185.044-.293v-4.041Z"/><path class="cls-3" d="m46.662,37.38v-14.126c0-.108.007-.219-.041-.276-.016-.029-.07-.045-.113-.052h-3.18c-.097,0-.205-.003-.244.057-.042.056-.032.176-.032.279v12.448c0,.088.01.191-.003.265-.015.07.003.143-.012.209-.047.137-.152.223-.242.316-.157.155-.306.311-.467.466-.09.093-.174.2-.318.246-.102.031-.245.018-.365.018h-5.458c-.122,0-.24.004-.324-.03-.133-.051-.219-.168-.312-.257-.143-.15-.295-.292-.442-.443-.088-.093-.194-.179-.236-.316-.02-.066.002-.139-.013-.209-.012-.048-.007-.126-.007-.186v-12.548c0-.1.013-.203-.028-.258-.043-.06-.152-.057-.249-.057h-3.171c-.048.031-.097.013-.129.062-.062.088-.032.424-.032.572v16.989c0,.087-.003.177.032.23.042.069.148.062.264.062h14.805c.102,0,.21.011.264-.042.059-.039.053-.147.053-.246v-3.173Z"/><path class="cls-3" d="m66.417,33.111v-1.604c0-.19.042-.484-.103-.531-.046,0-.091-.002-.134-.004h-5.413c-.157,0-.317-.02-.356.098-.02.069-.007.18-.007.261v2.964c0,.098-.007.199.05.242.068.053.231.039.354.039h.597c.096,0,.203.002.299.004.182.038.27.144.376.25.142.149.286.289.428.432.128.125.25.225.296.437.002.062.004.124.006.186,0,.106.007.234-.025.319-.064.175-.297.353-.421.482-.106.103-.209.21-.314.315-.08.081-.157.169-.285.21-.11.037-.283.018-.422.018h-5.118c-.23,0-.525.029-.665-.06-.095-.054-.167-.144-.239-.218-.126-.127-.251-.251-.381-.379-.107-.104-.24-.205-.3-.355-.054-.131-.03-.453-.03-.635v-7.329c0-.144-.024-.32.004-.45.004-.066.008-.127.008-.188.042-.171.157-.263.263-.368.151-.153.303-.301.457-.455.094-.095.185-.205.335-.244.123-.037.382-.014.536-.014h5.899c.149,0,.376.027.439-.065.034-.056.023-.152.023-.235v-3.038c0-.092.004-.191-.047-.232-.057-.045-.161-.039-.263-.039h-11.106c-.046.032-.09.013-.122.063-.062.087-.034.426-.034.579v16.982c0,.083-.004.179.034.229.04.069.149.062.257.062h14.804c.104,0,.212.011.274-.041.069-.049.046-.344.046-.48v-7.208Z"/><path class="cls-3" d="m94.132,34.683v-6.654c.002-.125.004-.252.009-.381.041-.205.162-.296.283-.417.142-.141.281-.277.419-.419.104-.106.19-.221.357-.264.026-.006.056-.006.082-.008.127-.029.355-.006.501-.006h9.838c.073,0,.163.008.219-.011.048-.017.075-.061.093-.11.015-.073.007-.179.007-.266v-2.886c0-.1.007-.215-.035-.273-.04-.068-.156-.063-.266-.063h-14.963c-.043.029-.094.013-.119.058-.065.088-.035.431-.035.584v16.993c0,.085-.005.175.035.221.041.066.148.059.248.059h14.805c.096,0,.208.011.27-.029.042-.033.034-.076.053-.141.01-.056.007-.13.007-.195v-2.958c0-.129,0-.24-.1-.275-.06-.024-.157-.012-.242-.012h-9.738c-.264,0-.624.038-.791-.065-.088-.057-.158-.141-.226-.214-.132-.133-.266-.269-.407-.402-.099-.1-.227-.197-.278-.345-.047-.12-.026-.345-.026-.5v-1.021Z"/><path class="cls-3" d="m125.699,40.525v-17.32c0-.098.008-.2-.048-.241-.068-.049-.2-.039-.316-.039h-14.9c-.019.013-.051.01-.071.028-.087.03-.08.147-.08.269v17.152c0,.108-.024.275.016.362.039.096.138.087.277.087h3.026c.081,0,.178.013.229-.024.064-.04.064-.129.064-.231v-1.948c0-.223-.032-.519.056-.66.059-.091.142-.16.214-.238.137-.128.266-.256.393-.388.099-.103.197-.234.335-.291.13-.055.385-.036.56-.036h5.379c.082.018.179.003.249.032.124.049.199.152.288.238.15.151.298.3.449.445.086.093.207.177.249.316.042.132.027.321.027.482v1.87c0,.124-.027.308.03.381.039.058.137.052.243.052h3.042c.079,0,.178.013.229-.024.068-.041.06-.16.06-.274m-3.604-12.264v3.471c0,.318.03.597-.11.783-.175.182-.365.362-.544.544-.104.109-.211.245-.359.308-.15.06-.457.027-.65.027h-5.061c-.147,0-.325.018-.445-.022-.146-.046-.232-.174-.333-.27-.142-.141-.281-.28-.417-.416-.073-.075-.161-.139-.219-.229-.079-.135-.061-.38-.061-.592v-3.832c0-.071-.011-.167,0-.23.018-.094,0-.18.023-.254.064-.153.194-.252.3-.355.132-.131.254-.256.383-.382.075-.075.148-.162.238-.218.035-.018.081-.036.119-.046.027-.011.062,0,.086-.014h5.406c.173,0,.463-.027.595.022.166.048.257.177.357.28.136.135.273.269.41.404.071.074.164.148.217.243.106.16.064.523.064.778"/><path class="cls-2" d="m104.993,23.768h-13.623v16.226h13.725v-1.92h-9.235s-.153.003-.153.003c-.31.009-.742.023-1.094-.2-.013-.01-.322-.281-.322-.281q-.488-.488-.488-.539c-.018.029-.419-.532-.419-.532-.024-.062-.094-.709-.094-.709-.002-.005,0-7.787,0-7.787l.008-.461c0-.009.011-.092.015-.099.094-.416.319-.646.456-.784.016-.015.937-.878.937-.878.036-.025.218-.096.218-.096.044-.01.302-.013.302-.013.02-.001.438-.012.438-.012.005,0,.126.005.126.005h9.305v-1.923h-.102Z"/><path class="cls-5" d="m86.122,22.956c-.068-.046-.216-.031-.327-.031h-14.877c-.043.031-.094.013-.126.062-.063.089-.035.432-.035.583v16.979c0,.083-.005.179.035.229.044.069.151.062.261.062h14.799c.096,0,.209.011.27-.029.063-.048.06-.17.06-.284v-17.311c0-.108.003-.216-.06-.26m-3.577,13.257c-.054.139-.184.231-.275.327-.14.138-.275.277-.412.41-.08.077-.142.167-.239.225-.009.007-.025.007-.034.011-.172.075-.537.043-.775.043h-5.028c-.12,0-.27.015-.368-.018-.153-.046-.245-.175-.345-.276-.137-.136-.277-.274-.412-.41-.079-.079-.17-.152-.227-.248-.092-.149-.052-.544-.052-.785v-7.34c0-.182-.035-.46.019-.598.053-.142.18-.236.277-.329.138-.14.278-.275.415-.414.065-.065.13-.151.206-.204.04-.025.092-.05.14-.059.031-.011.066.001.093-.014h5.403c.174,0,.466-.027.6.019.023.006.035.024.054.034.116.057.205.156.291.24.199.202.405.404.602.606.12.169.093.493.093.778v7.388c0,.185.027.468-.026.614"/><path class="cls-1" d="m82.515,23.768c-.016,0-.021.012-.021.024v2.308l.069.166s.707.766.707.766c0,.002.123.333.123.333v9.024l-.123.331s-.707.758-.707.758l-.069.163v2.314c0,.012.004.023.021.023h2.828c.01,0,.021-.011.021-.023v-16.163c0-.013-.011-.024-.021-.024h-2.828Z"/><path class="cls-1" d="m104.993,23.768h-13.623v16.226h13.725v-1.92h-9.235s-.153.003-.153.003c-.31.009-.742.023-1.094-.2-.013-.01-.322-.281-.322-.281q-.488-.488-.488-.539c-.018.029-.419-.532-.419-.532-.024-.062-.094-.709-.094-.709-.002-.005,0-7.787,0-7.787l.008-.461c0-.009.011-.092.015-.099.094-.416.319-.646.456-.784.016-.015.937-.878.937-.878.036-.025.218-.096.218-.096.044-.01.302-.013.302-.013.02-.001.438-.012.438-.012.005,0,.126.005.126.005h9.305v-1.923h-.102Z"/></g></g></svg>