<?xml version="1.0" encoding="UTF-8"?><svg id="_レイヤー_2" xmlns="http://www.w3.org/2000/svg" xmlns:xlink="http://www.w3.org/1999/xlink" viewBox="0 0 150.523 93.806"><defs><style>.cls-1{fill:#fff;}.cls-2{fill:#cbab80;}.cls-3{fill:#319041;}.cls-4{clip-path:url(#clippath);}.cls-5{fill:none;}.cls-6{fill:#231815;}</style><clipPath id="clippath"><rect class="cls-5" x="0" width="150.522" height="93.806"/></clipPath></defs><g id="_レイヤー_1-2"><g class="cls-4"><path class="cls-6" d="m10.075,74.513c8.038,11.081,21.388,19.292,36.33,19.292l.21-.01h57.68c-.019-.032.207-.027.207-.027,25.376,0,46.021-20.623,46.021-45.971,0-11.09-3.951-21.275-10.522-29.224"/><path class="cls-3" d="m103.551,2.94c-.886,0-1.764.034-2.639.088h-54.91C22.22,3.028,3.155,22.309,3.155,46.091s19.065,43.066,42.847,43.066c1.065,0,2.118-.052,3.165-.129h54.178v-.032c.068,0,.137.005.206.006,23.894.19,43.297-19.234,43.297-43.001S127.347,2.94,103.551,2.94"/><path class="cls-2" d="m5.879,46.09C5.879,23.966,23.878,5.966,46.002,5.966h54.96l2.589-.087c22.135,0,40.143,17.984,40.143,40.09s-18.008,40.093-40.143,40.093c.019,0-.206-.006-.206-.006l-54.238.032-3.105.128c-22.124,0-40.123-18.001-40.123-40.126m41.103,45.877c12.493-.022,56.363,0,56.363,0,0,0,0-.003,0-.003,0-.028.207-.023.207-.023,25.376,0,46.022-20.624,46.022-45.972S128.927,0,103.551,0c0,0-2.359.078-2.653.087h-54.896C20.636.087,0,20.724,0,46.09s21.223,45.878,46.589,45.878h.393Z"/><polyline class="cls-3" points="103.56 89.058 46.202 89.09 46.217 3.057 103.551 2.94"/><path class="cls-3" d="m60.685,46.001c0-23.766,19.288-43.032,43.082-43.032s43.081,19.266,43.081,43.032-19.286,43.03-43.081,43.03-43.082-19.265-43.082-43.03"/><path class="cls-3" d="m3.164,46.2C3.164,22.39,22.452,3.088,46.246,3.088s43.081,19.302,43.081,43.112-19.286,43.013-43.081,43.013S3.164,70.011,3.164,46.2"/><path class="cls-3" d="m46.217,3.057C22.435,3.057,3.155,22.338,3.155,46.119s19.28,43.067,43.062,43.067,43.066-19.281,43.066-43.067S70.003,3.057,46.217,3.057"/><path class="cls-6" d="m72.45,72.353c-3.395,3.401-7.335,6.051-11.62,7.888,10.924-11.662,10.403-34.122,10.403-34.122,0,0,.521-22.463-10.403-34.119,4.285,1.837,8.225,4.489,11.62,7.888,7.007,7.01,10.865,16.324,10.865,26.231s-3.858,19.226-10.865,26.234m-23.24,10.749h-.004l-.002-73.961h.006c1.889.758,3.726,2.168,5.498,3.938,3.077,3.081,5.686,7.672,7.548,13.283,1.969,5.927,3.01,12.757,3.01,19.757s-1.041,13.833-3.01,19.761c-1.862,5.61-4.471,10.203-7.548,13.282-1.772,1.77-3.609,3.177-5.498,3.94m-5.975,0h-.005c-1.889-.763-3.732-2.17-5.496-3.94-3.08-3.079-5.688-7.672-7.554-13.282-1.969-5.928-3.01-12.76-3.01-19.761s1.041-13.83,3.01-19.757c1.866-5.611,4.474-10.202,7.554-13.283,1.764-1.77,3.607-3.18,5.496-3.938h.005v73.961Zm-23.249-10.749c-7.007-7.008-10.867-16.322-10.867-26.234s3.86-19.221,10.867-26.231c3.395-3.399,7.335-6.051,11.624-7.888-10.922,11.656-10.407,34.119-10.407,34.119,0,0-.515,22.46,10.407,34.122-4.289-1.837-8.229-4.487-11.624-7.888M46.217,3.057C22.435,3.057,3.155,22.338,3.155,46.119s19.28,43.067,43.062,43.067,43.066-19.281,43.066-43.067S70.003,3.057,46.217,3.057"/><rect class="cls-1" x="44.579" y="32.787" width="3.282" height="9.205"/><path class="cls-1" d="m68.61,32.437c.578,2.964.961,6.057,1.15,9.22l-3.28.152c-.18-3.003-.549-5.925-1.091-8.719l3.221-.653"/><rect class="cls-1" x="44.579" y="50.249" width="3.282" height="9.205"/><path class="cls-1" d="m68.61,59.803c.578-2.963.961-6.053,1.15-9.22l-3.28-.154c-.18,3.009-.549,5.929-1.091,8.721l3.221.653"/><path class="cls-2" d="m30.659,15.25l2.457,1.542c-1.456,2.302-2.723,4.955-3.773,7.86l-3.078-1.12s1.699-4.704,4.394-8.282"/><path class="cls-2" d="m32.331,6.754c-2.918,1.029-5.716,2.382-8.344,4.044l1.747,2.775c2.429-1.535,5.015-2.785,7.709-3.732l-1.112-3.087"/><path class="cls-2" d="m23.827,32.437c-.572,2.964-.961,6.057-1.15,9.22l3.28.152c.18-3.003.549-5.925,1.089-8.719l-3.219-.653"/><path class="cls-2" d="m16.713,16.618c-2.239,2.239-4.189,4.69-5.842,7.305l2.788,1.733c1.521-2.403,3.315-4.66,5.378-6.717l-2.324-2.321"/><path class="cls-2" d="m6.785,32.423c-1.009,2.907-1.69,5.933-2.033,9.037l3.26.369c.317-2.869.947-5.661,1.881-8.344l-3.108-1.062"/><path class="cls-2" d="m41.865,7.92c1.435-.163,2.89-.241,4.352-.241s2.928.078,4.361.241l.369-3.261c-1.557-.172-3.138-.264-4.73-.264s-3.162.092-4.719.262l.367,3.263"/><rect class="cls-2" x="44.579" y="15.36" width="3.282" height="9.297"/><path class="cls-2" d="m61.782,15.25l-2.457,1.542c1.454,2.302,2.717,4.955,3.769,7.86l3.082-1.12s-1.699-4.704-4.394-8.282"/><path class="cls-2" d="m60.105,6.754c2.922,1.029,5.716,2.382,8.346,4.044l-1.749,2.775c-2.429-1.535-5.015-2.785-7.709-3.732l1.112-3.087"/><path class="cls-2" d="m75.721,16.618c2.241,2.239,4.197,4.69,5.842,7.305l-2.788,1.733c-1.516-2.403-3.315-4.66-5.374-6.717l2.32-2.321"/><path class="cls-2" d="m30.659,76.992l2.457-1.542c-1.456-2.306-2.723-4.955-3.773-7.864l-3.078,1.127s1.699,4.696,4.394,8.279"/><path class="cls-2" d="m32.331,85.485c-2.918-1.024-5.716-2.378-8.344-4.042l1.747-2.775c2.429,1.535,5.015,2.781,7.709,3.728l-1.112,3.089"/><path class="cls-2" d="m23.827,59.803c-.572-2.963-.961-6.053-1.15-9.22l3.28-.154c.18,3.009.549,5.929,1.089,8.721l-3.219.653"/><path class="cls-2" d="m16.713,75.627c-2.239-2.243-4.189-4.694-5.842-7.31l2.788-1.732c1.521,2.405,3.315,4.66,5.378,6.721l-2.324,2.321"/><path class="cls-2" d="m6.785,59.82c-1.009-2.909-1.69-5.934-2.033-9.034l3.26-.37c.317,2.863.947,5.659,1.881,8.344l-3.108,1.06"/><path class="cls-2" d="m41.498,87.58c1.558.176,3.135.264,4.719.264,1.593,0,3.174-.088,4.731-.264l-.369-3.257c-1.433.157-2.894.241-4.362.241s-2.916-.084-4.352-.241l-.367,3.257"/><rect class="cls-2" x="44.579" y="67.586" width="3.282" height="9.298"/><path class="cls-2" d="m61.782,76.992l-2.457-1.542c1.454-2.306,2.717-4.955,3.769-7.864l3.082,1.127s-1.699,4.696-4.394,8.279"/><path class="cls-2" d="m60.105,85.485c2.922-1.024,5.716-2.378,8.346-4.042l-1.749-2.775c-2.429,1.535-5.015,2.781-7.709,3.728l1.112,3.089"/><path class="cls-2" d="m75.721,75.627c2.241-2.243,4.197-4.694,5.842-7.31l-2.788-1.732c-1.516,2.405-3.315,4.66-5.374,6.721l2.32,2.321"/><rect class="cls-3" x="42.186" y="30.323" width="46.766" height="29.942"/><path class="cls-1" d="m83.401,45.966c0-11.289,9.15-20.441,20.439-20.441s20.438,9.152,20.438,20.441-9.149,20.439-20.438,20.439-20.439-9.152-20.439-20.439"/><path class="cls-6" d="m103.839,66.65c-11.405,0-20.684-9.278-20.684-20.684s9.279-20.685,20.684-20.685,20.684,9.279,20.684,20.685-9.279,20.684-20.684,20.684m0-40.879c-11.135,0-20.194,9.06-20.194,20.195s9.059,20.194,20.194,20.194,20.194-9.058,20.194-20.194-9.059-20.195-20.194-20.195"/><path class="cls-6" d="m55.076,36.329c0,1.016.078,2.061.205,3.156-2.57-1.095-4.913-1.705-7.253-1.705-2.165,0-3.261.687-3.261,1.959,0,1.376,1.452,1.654,4.403,2.19,4.632.838,6.976,2.416,6.976,6.592,0,4.125-2.721,6.49-7.868,6.49-2.926,0-5.622-.354-8.041-1.043-.051-1.935-.128-3.615-.331-5.066,2.696,1.324,5.42,1.962,7.663,1.962,2.367,0,3.486-.559,3.486-1.935,0-1.579-1.322-1.782-3.716-2.291-2.216-.486-3.996-.815-5.345-1.782-1.376-.991-2.216-2.673-2.216-4.583,0-3.894,2.901-6.363,8.401-6.363,1.962,0,4.302.306,6.922.993-.025.507-.025,1.018-.025,1.426"/><path class="cls-6" d="m69.919,40.018v8.375c0,2.061.226,3.285,2.264,3.285,1.169,0,2.214-.459,3.332-1.374v-10.286h4.736v14.408h-3.793l-.432-1.552c-1.86,1.424-3.588,2.136-5.372,2.136-1.856,0-3.307-.66-4.327-1.908-1.016-1.297-1.144-2.698-1.144-4.532v-8.552h4.736"/><path class="cls-6" d="m140.351,45.442c0-4.124-1.653-6.034-6.951-6.034-2.239,0-4.223.459-5.879,1.324l.816,2.901c1.502-.866,2.977-1.299,4.377-1.299,2.242,0,3.184.714,3.184,2.319v.992h-.791c-5.754,0-8.935,1.63-8.935,4.964,0,2.773,1.708,4.402,4.658,4.402,1.807,0,3.872-.584,5.956-1.859.333.944.943,1.478,1.912,1.859l2.978-2.647c-1.248-.637-1.325-1.095-1.325-2.239v-4.683m-4.453,2.698v2.876c-1.196.561-2.369.838-3.389.838-1.093,0-1.654-.508-1.654-1.502,0-1.475,1.477-2.212,4.457-2.212h.586Z"/><path class="cls-6" d="m92.709,41.329h3.445v12.366h-3.445v-12.366Zm-1.317,13.684h6.078v-14.998h-6.078v14.998Z"/><path class="cls-6" d="m92.709,35.665h3.445v1.845h-3.445v-1.845Zm-1.317,3.159h6.078v-4.478h-6.078v4.478Z"/><path class="cls-6" d="m117.483,53.725c-1.649.402-2.947.49-3.768.49-2.387,0-4.348-.705-5.674-2.027-1.237-1.236-1.891-2.991-1.891-5.073,0-1.962.626-3.623,1.808-4.808,1.355-1.353,3.399-2.07,5.908-2.07,1.187,0,2.375.17,3.705.526l.172,2.4c-1.328-.465-2.559-.699-3.72-.699-2.823,0-4.378,1.661-4.378,4.674,0,1.59.422,2.815,1.251,3.645.785.783,1.895,1.179,3.301,1.179,1.137,0,2.358-.23,3.535-.652l-.249,2.415m.735-4.038c-1.305.62-2.735.959-4.021.959-1.045,0-1.845-.266-2.373-.792-.572-.577-.863-1.488-.863-2.716,0-1.187.278-2.065.827-2.611.494-.497,1.242-.748,2.235-.748,1.265,0,2.641.32,4.197.972l.986.416-.389-5.416-.438-.13c-1.635-.475-3.068-.699-4.513-.699-2.704,0-4.981.762-6.576,2.207-1.605,1.452-2.455,3.523-2.455,5.986,0,2.44.787,4.515,2.272,6.001,1.579,1.579,3.866,2.413,6.608,2.413,1.393,0,2.964-.222,4.547-.645l.44-.118.572-5.579-1.056.5Z"/><path class="cls-1" d="m54.341,35.349c0,1.016.078,2.061.205,3.156-2.57-1.095-4.913-1.705-7.253-1.705-2.165,0-3.261.687-3.261,1.959,0,1.376,1.452,1.654,4.403,2.19,4.632.838,6.976,2.416,6.976,6.593,0,4.124-2.721,6.489-7.868,6.489-2.926,0-5.622-.354-8.041-1.043-.051-1.935-.128-3.615-.331-5.066,2.696,1.324,5.42,1.962,7.663,1.962,2.367,0,3.486-.559,3.486-1.935,0-1.579-1.322-1.782-3.716-2.291-2.216-.486-3.996-.815-5.345-1.782-1.376-.991-2.216-2.673-2.216-4.583,0-3.894,2.901-6.363,8.401-6.363,1.962,0,4.302.306,6.922.993-.025.507-.025,1.018-.025,1.426"/><path class="cls-1" d="m69.184,39.038v8.375c0,2.061.226,3.285,2.264,3.285,1.169,0,2.214-.459,3.332-1.374v-10.286h4.736v14.408h-3.793l-.432-1.552c-1.86,1.425-3.588,2.136-5.372,2.136-1.856,0-3.307-.66-4.327-1.908-1.016-1.297-1.144-2.698-1.144-4.532v-8.552h4.736"/><path class="cls-1" d="m139.616,44.462c0-4.124-1.653-6.034-6.951-6.034-2.239,0-4.223.459-5.879,1.324l.816,2.901c1.502-.866,2.977-1.299,4.377-1.299,2.242,0,3.184.714,3.184,2.319v.992h-.791c-5.754,0-8.935,1.63-8.935,4.964,0,2.773,1.708,4.402,4.658,4.402,1.807,0,3.872-.584,5.956-1.859.333.944.943,1.478,1.912,1.859l2.978-2.647c-1.248-.637-1.325-1.095-1.325-2.239v-4.683m-4.453,2.698v2.877c-1.196.56-2.369.838-3.389.838-1.093,0-1.654-.509-1.654-1.503,0-1.475,1.477-2.212,4.457-2.212h.586Z"/><path class="cls-3" d="m91.974,40.35h3.445v12.366h-3.445v-12.366Zm-1.317,13.683h6.078v-14.998h-6.078v14.998Z"/><path class="cls-3" d="m91.974,34.685h3.445v1.845h-3.445v-1.845Zm-1.317,3.16h6.078v-4.478h-6.078v4.478Z"/><path class="cls-3" d="m116.748,52.745c-1.649.402-2.947.49-3.768.49-2.387,0-4.348-.705-5.674-2.027-1.237-1.236-1.891-2.991-1.891-5.073,0-1.962.626-3.623,1.808-4.808,1.355-1.353,3.399-2.07,5.908-2.07,1.187,0,2.375.17,3.705.526l.172,2.4c-1.328-.465-2.559-.699-3.72-.699-2.823,0-4.378,1.662-4.378,4.674,0,1.59.422,2.815,1.251,3.645.785.783,1.895,1.179,3.301,1.179,1.137,0,2.358-.23,3.535-.652l-.249,2.415m.735-4.038c-1.305.62-2.735.959-4.021.959-1.045,0-1.845-.266-2.373-.792-.572-.577-.863-1.488-.863-2.716,0-1.187.278-2.065.827-2.611.494-.497,1.242-.748,2.235-.748,1.265,0,2.641.32,4.197.972l.986.416-.389-5.416-.438-.13c-1.635-.475-3.068-.699-4.513-.699-2.704,0-4.981.762-6.576,2.207-1.605,1.452-2.455,3.523-2.455,5.986,0,2.44.787,4.514,2.272,6.001,1.579,1.579,3.866,2.413,6.608,2.413,1.393,0,2.964-.222,4.547-.644l.44-.119.572-5.579-1.056.5Z"/><path class="cls-6" d="m93.674,63.556c-5.228-3.702-8.641-9.799-8.641-16.691,0-11.289,9.15-20.441,20.439-20.441,2.526,0,5.17.445,7.403,1.282l.139-.05c-2.779-1.415-5.925-2.212-9.257-2.212-11.289,0-20.438,9.152-20.438,20.441,0,7.619,4.17,14.266,10.353,17.781l.002-.11"/></g></g></svg>