<?xml version="1.0" encoding="UTF-8"?><svg id="_レイヤー_2" xmlns="http://www.w3.org/2000/svg" xmlns:xlink="http://www.w3.org/1999/xlink" viewBox="0 0 143.527 58.704"><defs><style>.cls-1{fill:#00a0c6;fill-rule:evenodd;}.cls-2{clip-path:url(#clippath);}.cls-3{fill:none;}</style><clipPath id="clippath"><rect class="cls-3" x="0" y="0" width="143.526" height="58.704"/></clipPath></defs><g id="_レイヤー_1-2"><g class="cls-2"><path class="cls-1" d="m138.194,40.014c0-10.31-8.364-18.672-18.676-18.672-8.095,0-14.991,5.156-17.576,12.359l-.187.192c-1.218,1.214-2.835,1.883-4.549,1.883-3.548,0-6.438-2.888-6.438-6.431s2.89-6.433,6.438-6.433c1.72,0,3.334.665,4.545,1.883l1.107,1.118,13.542-13.548-1.112-1.105c-4.829-4.835-11.252-7.492-18.082-7.492-11.148,0-20.643,7.167-24.141,17.133V3.768h-19.14v21.372c-3.123-2.376-7.009-3.798-11.245-3.798-8.34,0-15.4,5.469-17.797,13.02-2.062-.739-3.543-2.702-3.543-5.017v-8.003h8.003v-13.337h-8.003V0h-13.337v8.005H0v13.337h8.003v8.003c0,10.014,7.889,18.186,17.791,18.648,3,6.318,9.426,10.71,16.886,10.71,4.235,0,8.122-1.438,11.245-3.81v.033h19.14v-17.141c3.498,9.968,12.993,17.139,24.141,17.139,3.17,0,6.256-.587,9.143-1.686,3.375,3.362,8.022,5.465,13.169,5.465,4.576,0,8.753-1.662,12.001-4.392,3.248,2.73,7.437,4.392,12.008,4.392v-13.354c-2.95,0-5.333-2.388-5.333-5.335m-95.514,5.335c-2.946,0-5.335-2.388-5.335-5.335s2.389-5.336,5.335-5.336,5.335,2.389,5.335,5.336-2.389,5.335-5.335,5.335m27.252,6.441h-12.866V6.904h12.866v44.886Zm4.834-22.445c0-12.373,10.068-22.441,22.44-22.441,5.466,0,10.621,1.961,14.705,5.519-1.688,1.686-7.654,7.653-9.142,9.145-1.61-1.16-3.534-1.794-5.563-1.794-5.279,0-9.572,4.294-9.572,9.571s4.293,9.565,9.572,9.565c2.022,0,3.948-.632,5.562-1.788,1.484,1.491,7.455,7.458,9.141,9.145-4.084,3.557-9.239,5.52-14.703,5.52-12.372,0-22.44-10.069-22.44-22.442m44.752,16.004c-2.944,0-5.333-2.388-5.333-5.335s2.389-5.336,5.333-5.336,5.336,2.389,5.336,5.336-2.387,5.335-5.336,5.335"/></g></g></svg>